<svg xmlns="http://www.w3.org/2000/svg" xmlns:xlink="http://www.w3.org/1999/xlink" width="1920" zoomAndPan="magnify" viewBox="0 0 1440 809.999993" height="1080" preserveAspectRatio="xMidYMid meet" version="1.0"><defs><g/></defs><rect x="-144" width="1728" fill="#ffffff" y="-80.999999" height="971.999992" fill-opacity="1"/><rect x="-144" width="1728" fill="#ffffff" y="-80.999999" height="971.999992" fill-opacity="1"/><rect x="-144" width="1728" fill="#00599d" y="-80.999999" height="971.999992" fill-opacity="1"/><g fill="#ffffff" fill-opacity="1"><g transform="translate(121.910156, 152.774529)"><g><path d="M 15.796875 -21.203125 L 44.40625 -21.203125 C 49.46875 -21.203125 53.066406 -22.132812 55.203125 -24 C 57.335938 -25.863281 58.40625 -30.265625 58.40625 -37.203125 L 58.40625 -106.40625 C 58.40625 -112.40625 58.070312 -116.90625 57.40625 -119.90625 C 56.738281 -122.90625 55.800781 -125.601562 54.59375 -128 C 54.59375 -128.132812 54.5625 -128.234375 54.5 -128.296875 C 54.4375 -128.367188 54.40625 -128.40625 54.40625 -128.40625 L 111.59375 -128.40625 C 111.59375 -128.40625 111.5625 -128.367188 111.5 -128.296875 C 111.4375 -128.234375 111.40625 -128.132812 111.40625 -128 C 110.195312 -125.601562 109.257812 -122.90625 108.59375 -119.90625 C 107.925781 -116.90625 107.59375 -112.40625 107.59375 -106.40625 L 107.59375 -37.203125 C 107.59375 -20.535156 103.625 -10.164062 95.6875 -6.09375 C 87.757812 -2.03125 77.863281 0 66 0 L 2.59375 0 L -1.40625 -24.59375 C 1.257812 -23.664062 4.023438 -22.867188 6.890625 -22.203125 C 9.765625 -21.535156 12.734375 -21.203125 15.796875 -21.203125 Z M 15.796875 -21.203125 "/></g></g></g><g fill="#ffffff" fill-opacity="1"><g transform="translate(240.906995, 152.774529)"><g><path d="M 118.40625 -128.40625 L 122.203125 -103.796875 C 121.929688 -103.929688 121.628906 -104.066406 121.296875 -104.203125 C 120.960938 -104.335938 120.664062 -104.40625 120.40625 -104.40625 C 118 -105.195312 115.460938 -105.859375 112.796875 -106.390625 C 110.128906 -106.929688 106.726562 -107.203125 102.59375 -107.203125 L 67.203125 -107.203125 C 64.003906 -107.203125 61.601562 -106.597656 60 -105.390625 C 58.394531 -104.191406 57.59375 -101.925781 57.59375 -98.59375 L 57.59375 -29.40625 C 57.59375 -26.332031 58.394531 -24.195312 60 -23 C 61.601562 -21.800781 64.003906 -21.203125 67.203125 -21.203125 L 94.796875 -21.203125 C 103.066406 -21.203125 108.96875 -21.46875 112.5 -22 C 116.03125 -22.53125 119 -23.332031 121.40625 -24.40625 C 121.9375 -24.664062 122.46875 -24.925781 123 -25.1875 C 123.53125 -25.457031 124.0625 -25.726562 124.59375 -26 L 120.40625 0 L 41.203125 0 C 30.796875 0 22.789062 -2.832031 17.1875 -8.5 C 11.59375 -14.164062 8.796875 -23.863281 8.796875 -37.59375 L 8.796875 -90.40625 C 8.796875 -104.40625 11.59375 -114.238281 17.1875 -119.90625 C 22.789062 -125.570312 30.796875 -128.40625 41.203125 -128.40625 Z M 118.40625 -128.40625 "/></g></g></g><g fill="#ffffff" fill-opacity="1"><g transform="translate(367.303626, 152.774529)"><g><path d="M 59.59375 -76.796875 L 96 -76.796875 L 96 -106.40625 C 96 -112.40625 95.664062 -116.90625 95 -119.90625 C 94.332031 -122.90625 93.398438 -125.601562 92.203125 -128 C 92.203125 -128.132812 92.164062 -128.234375 92.09375 -128.296875 C 92.03125 -128.367188 92 -128.40625 92 -128.40625 L 149.203125 -128.40625 C 149.203125 -128.40625 149.164062 -128.367188 149.09375 -128.296875 C 149.03125 -128.234375 149 -128.132812 149 -128 C 147.800781 -125.601562 146.867188 -122.90625 146.203125 -119.90625 C 145.535156 -116.90625 145.203125 -112.40625 145.203125 -106.40625 L 145.203125 -22 C 145.203125 -16 145.535156 -11.5 146.203125 -8.5 C 146.867188 -5.5 147.800781 -2.800781 149 -0.40625 C 149 -0.269531 149.03125 -0.164062 149.09375 -0.09375 C 149.164062 -0.03125 149.203125 0 149.203125 0 L 92 0 C 92 0 92.03125 -0.03125 92.09375 -0.09375 C 92.164062 -0.164062 92.203125 -0.269531 92.203125 -0.40625 C 93.398438 -2.800781 94.332031 -5.5 95 -8.5 C 95.664062 -11.5 96 -16 96 -22 L 96 -55.59375 L 59.59375 -55.59375 L 59.59375 -22 C 59.59375 -16 59.925781 -11.5 60.59375 -8.5 C 61.257812 -5.5 62.195312 -2.800781 63.40625 -0.40625 C 63.40625 -0.269531 63.4375 -0.164062 63.5 -0.09375 C 63.5625 -0.03125 63.59375 0 63.59375 0 L 6.796875 0 C 6.796875 0 6.828125 -0.03125 6.890625 -0.09375 C 6.960938 -0.164062 7 -0.269531 7 -0.40625 C 8.195312 -2.800781 9.128906 -5.5 9.796875 -8.5 C 10.460938 -11.5 10.796875 -16 10.796875 -22 L 10.796875 -106.40625 C 10.796875 -112.40625 10.460938 -116.90625 9.796875 -119.90625 C 9.128906 -122.90625 8.195312 -125.601562 7 -128 C 7 -128.132812 6.960938 -128.234375 6.890625 -128.296875 C 6.828125 -128.367188 6.796875 -128.40625 6.796875 -128.40625 L 63.59375 -128.40625 C 63.59375 -128.40625 63.5625 -128.367188 63.5 -128.296875 C 63.4375 -128.234375 63.40625 -128.132812 63.40625 -128 C 62.195312 -125.601562 61.257812 -122.90625 60.59375 -119.90625 C 59.925781 -116.90625 59.59375 -112.40625 59.59375 -106.40625 Z M 59.59375 -76.796875 "/></g></g></g><g fill="#ffffff" fill-opacity="1"><g transform="translate(523.299479, 152.774529)"><g><path d="M 126.796875 -128.40625 L 131 -103 C 130.332031 -103.269531 129.628906 -103.570312 128.890625 -103.90625 C 128.160156 -104.238281 127.460938 -104.535156 126.796875 -104.796875 C 124.660156 -105.460938 122.425781 -106.03125 120.09375 -106.5 C 117.757812 -106.96875 114.796875 -107.203125 111.203125 -107.203125 L 65.40625 -107.203125 C 61.664062 -107.203125 59.160156 -106.832031 57.890625 -106.09375 C 56.628906 -105.363281 56 -103.863281 56 -101.59375 L 56 -94 C 56 -91.601562 56.628906 -90.070312 57.890625 -89.40625 C 59.160156 -88.738281 61.664062 -88.40625 65.40625 -88.40625 L 100.40625 -88.40625 C 110.800781 -88.40625 118.734375 -86.4375 124.203125 -82.5 C 129.671875 -78.5625 132.40625 -71.925781 132.40625 -62.59375 L 132.40625 -31.40625 C 132.40625 -21.269531 130.238281 -13.5 125.90625 -8.09375 C 121.570312 -2.695312 113.535156 0 101.796875 0 L 13.40625 0 L 9.203125 -26 C 11.597656 -24.800781 14.195312 -23.703125 17 -22.703125 C 19.800781 -21.703125 23.601562 -21.203125 28.40625 -21.203125 L 75.59375 -21.203125 C 79.46875 -21.203125 81.96875 -21.535156 83.09375 -22.203125 C 84.226562 -22.867188 84.796875 -24.398438 84.796875 -26.796875 L 84.796875 -35.59375 C 84.796875 -37.863281 84.226562 -39.363281 83.09375 -40.09375 C 81.96875 -40.832031 79.46875 -41.203125 75.59375 -41.203125 L 35.796875 -41.203125 C 26.066406 -41.203125 19.132812 -43.164062 15 -47.09375 C 10.863281 -51.03125 8.796875 -58.332031 8.796875 -69 L 8.796875 -97.59375 C 8.796875 -107.863281 11.160156 -115.566406 15.890625 -120.703125 C 20.628906 -125.835938 27.265625 -128.40625 35.796875 -128.40625 Z M 126.796875 -128.40625 "/></g></g></g><g fill="#ffffff" fill-opacity="1"><g transform="translate(664.495717, 152.774529)"><g/></g></g><g fill="#ffffff" fill-opacity="1"><g transform="translate(742.29361, 152.774529)"><g><path d="M 10.796875 -22 L 10.796875 -106.40625 C 10.796875 -112.40625 10.460938 -116.90625 9.796875 -119.90625 C 9.128906 -122.90625 8.195312 -125.601562 7 -128 C 7 -128.132812 6.960938 -128.234375 6.890625 -128.296875 C 6.828125 -128.367188 6.796875 -128.40625 6.796875 -128.40625 L 112 -128.40625 C 125.46875 -128.40625 134.367188 -125.96875 138.703125 -121.09375 C 143.035156 -116.226562 145.203125 -109.863281 145.203125 -102 L 145.203125 -87 C 145.203125 -78.863281 142.800781 -73.59375 138 -71.1875 C 133.195312 -68.789062 126.332031 -67.257812 117.40625 -66.59375 L 117.40625 -66.203125 C 117.53125 -66.203125 117.691406 -66.164062 117.890625 -66.09375 C 118.097656 -66.03125 118.332031 -66 118.59375 -66 C 128.726562 -64.800781 135.695312 -63.097656 139.5 -60.890625 C 143.300781 -58.691406 145.203125 -54.257812 145.203125 -47.59375 L 145.203125 -26.40625 C 145.203125 -18.664062 143.035156 -12.328125 138.703125 -7.390625 C 134.367188 -2.460938 125.46875 0 112 0 L 6.796875 0 C 6.796875 0 6.828125 -0.03125 6.890625 -0.09375 C 6.960938 -0.164062 7 -0.269531 7 -0.40625 C 8.195312 -2.800781 9.128906 -5.5 9.796875 -8.5 C 10.460938 -11.5 10.796875 -16 10.796875 -22 Z M 59.59375 -55.59375 L 59.59375 -21.203125 L 88 -21.203125 C 91.0625 -21.203125 93.160156 -21.632812 94.296875 -22.5 C 95.429688 -23.363281 96 -25.332031 96 -28.40625 L 96 -48.40625 C 96 -51.46875 95.429688 -53.429688 94.296875 -54.296875 C 93.160156 -55.160156 91.0625 -55.59375 88 -55.59375 Z M 59.59375 -107.203125 L 59.59375 -76.796875 L 88 -76.796875 C 91.0625 -76.796875 93.160156 -77.226562 94.296875 -78.09375 C 95.429688 -78.96875 96 -80.9375 96 -84 L 96 -99.59375 C 96 -102.925781 95.429688 -105.023438 94.296875 -105.890625 C 93.160156 -106.765625 91.0625 -107.203125 88 -107.203125 Z M 59.59375 -107.203125 "/></g></g></g><g fill="#ffffff" fill-opacity="1"><g transform="translate(894.489587, 152.774529)"><g><path d="M 133 -36.796875 L 53.59375 -36.796875 L 53.59375 -28 C 53.726562 -24.664062 54.628906 -22.234375 56.296875 -20.703125 C 57.960938 -19.171875 60.664062 -18.40625 64.40625 -18.40625 L 110.203125 -18.40625 C 112.867188 -18.40625 115.234375 -18.46875 117.296875 -18.59375 C 119.367188 -18.726562 121.40625 -19.0625 123.40625 -19.59375 C 124.738281 -19.863281 126.070312 -20.234375 127.40625 -20.703125 C 128.738281 -21.171875 130.132812 -21.738281 131.59375 -22.40625 L 128 0 L 33.59375 0 C 23.0625 0 15.894531 -2.296875 12.09375 -6.890625 C 8.300781 -11.492188 6.40625 -18.664062 6.40625 -28.40625 L 6.40625 -65.59375 C 6.40625 -75.46875 8.300781 -82.671875 12.09375 -87.203125 C 15.894531 -91.734375 23.0625 -94 33.59375 -94 L 105.796875 -94 C 116.460938 -94 123.660156 -91.734375 127.390625 -87.203125 C 131.128906 -82.671875 133 -75.46875 133 -65.59375 Z M 53.59375 -55.203125 L 86.59375 -55.203125 L 86.59375 -68 C 86.59375 -70.664062 86.125 -72.597656 85.1875 -73.796875 C 84.257812 -74.992188 82.460938 -75.59375 79.796875 -75.59375 L 60.40625 -75.59375 C 57.863281 -75.59375 56.09375 -74.992188 55.09375 -73.796875 C 54.09375 -72.597656 53.59375 -70.664062 53.59375 -68 Z M 53.59375 -55.203125 "/></g></g></g><g fill="#ffffff" fill-opacity="1"><g transform="translate(1035.68587, 152.774529)"><g><path d="M 14.203125 -94 L 100.59375 -94 C 111.925781 -94 120.023438 -91.332031 124.890625 -86 C 129.765625 -80.664062 132.203125 -71.53125 132.203125 -58.59375 L 132.203125 -17.59375 C 132.203125 -12.800781 132.632812 -9.132812 133.5 -6.59375 C 134.363281 -4.0625 135.460938 -1.863281 136.796875 0 L 89.203125 0 L 86.796875 -10.40625 L 86.40625 -10.40625 C 85.195312 -6.269531 83.289062 -3.5 80.6875 -2.09375 C 78.09375 -0.695312 73.597656 0 67.203125 0 L 33.59375 0 C 23.0625 0 15.894531 -2.296875 12.09375 -6.890625 C 8.300781 -11.492188 6.40625 -18.664062 6.40625 -28.40625 L 6.40625 -35.203125 C 6.40625 -45.066406 8.300781 -52.265625 12.09375 -56.796875 C 15.894531 -61.328125 23.0625 -63.59375 33.59375 -63.59375 L 76.59375 -63.59375 C 79.925781 -63.59375 82.09375 -64.0625 83.09375 -65 C 84.09375 -65.9375 84.59375 -67.46875 84.59375 -69.59375 C 84.59375 -71.726562 84.09375 -73.257812 83.09375 -74.1875 C 82.09375 -75.125 79.925781 -75.59375 76.59375 -75.59375 L 29.59375 -75.59375 C 26.132812 -75.59375 23.238281 -75.394531 20.90625 -75 C 18.570312 -74.601562 16.335938 -74.003906 14.203125 -73.203125 C 13.671875 -72.929688 13.132812 -72.660156 12.59375 -72.390625 C 12.0625 -72.128906 11.460938 -71.863281 10.796875 -71.59375 Z M 84.59375 -45.203125 L 63.59375 -45.203125 C 60 -45.066406 57.429688 -44.566406 55.890625 -43.703125 C 54.359375 -42.835938 53.59375 -40.671875 53.59375 -37.203125 L 53.59375 -26.40625 C 53.59375 -23.070312 54.359375 -20.9375 55.890625 -20 C 57.429688 -19.0625 60 -18.53125 63.59375 -18.40625 L 74.59375 -18.40625 C 79.132812 -18.40625 81.9375 -19.132812 83 -20.59375 C 84.0625 -22.0625 84.59375 -25.796875 84.59375 -31.796875 Z M 84.59375 -45.203125 "/></g></g></g><g fill="#ffffff" fill-opacity="1"><g transform="translate(1176.882153, 152.774529)"><g><path d="M 63.796875 -43.796875 L 55.796875 -37.40625 L 55.796875 -21.59375 C 55.796875 -15.726562 56.226562 -11.425781 57.09375 -8.6875 C 57.96875 -5.957031 59.003906 -3.53125 60.203125 -1.40625 C 60.335938 -1.132812 60.46875 -0.898438 60.59375 -0.703125 C 60.726562 -0.503906 60.863281 -0.269531 61 0 L 3.40625 0 C 3.53125 -0.269531 3.660156 -0.503906 3.796875 -0.703125 C 3.929688 -0.898438 4.066406 -1.132812 4.203125 -1.40625 C 5.398438 -3.53125 6.429688 -5.957031 7.296875 -8.6875 C 8.160156 -11.425781 8.59375 -15.726562 8.59375 -21.59375 L 8.59375 -106.796875 C 8.59375 -112.660156 8.160156 -116.957031 7.296875 -119.6875 C 6.429688 -122.425781 5.398438 -124.863281 4.203125 -127 C 4.066406 -127.269531 3.929688 -127.503906 3.796875 -127.703125 C 3.660156 -127.898438 3.53125 -128.132812 3.40625 -128.40625 L 55.796875 -128.40625 L 55.796875 -61 L 78.40625 -79.203125 C 81.46875 -81.734375 83.628906 -83.863281 84.890625 -85.59375 C 86.160156 -87.332031 87.0625 -89 87.59375 -90.59375 C 87.726562 -91.132812 87.863281 -91.703125 88 -92.296875 C 88.132812 -92.898438 88.269531 -93.46875 88.40625 -94 L 131.40625 -94 L 131.40625 -93.59375 C 131 -93.46875 130.628906 -93.335938 130.296875 -93.203125 C 129.960938 -93.066406 129.597656 -92.929688 129.203125 -92.796875 C 127.460938 -92.265625 125.757812 -91.597656 124.09375 -90.796875 C 122.425781 -89.992188 120.863281 -89.0625 119.40625 -88 L 98.40625 -72 L 129.59375 -19.203125 C 130.925781 -17.066406 132.023438 -15.265625 132.890625 -13.796875 C 133.765625 -12.328125 134.601562 -10.992188 135.40625 -9.796875 C 135.53125 -9.535156 135.691406 -9.269531 135.890625 -9 C 136.097656 -8.726562 136.269531 -8.460938 136.40625 -8.203125 C 137.195312 -7.128906 138.09375 -5.957031 139.09375 -4.6875 C 140.09375 -3.425781 141.394531 -1.863281 143 0 L 85.59375 0 Z M 63.796875 -43.796875 "/></g></g></g><g fill="#ffffff" fill-opacity="1"><g transform="translate(365.214835, 432.524515)"><g><path d="M 126.796875 -128.40625 L 131 -103 C 130.332031 -103.269531 129.628906 -103.570312 128.890625 -103.90625 C 128.160156 -104.238281 127.460938 -104.535156 126.796875 -104.796875 C 124.660156 -105.460938 122.425781 -106.03125 120.09375 -106.5 C 117.757812 -106.96875 114.796875 -107.203125 111.203125 -107.203125 L 65.40625 -107.203125 C 61.664062 -107.203125 59.160156 -106.832031 57.890625 -106.09375 C 56.628906 -105.363281 56 -103.863281 56 -101.59375 L 56 -94 C 56 -91.601562 56.628906 -90.070312 57.890625 -89.40625 C 59.160156 -88.738281 61.664062 -88.40625 65.40625 -88.40625 L 100.40625 -88.40625 C 110.800781 -88.40625 118.734375 -86.4375 124.203125 -82.5 C 129.671875 -78.5625 132.40625 -71.925781 132.40625 -62.59375 L 132.40625 -31.40625 C 132.40625 -21.269531 130.238281 -13.5 125.90625 -8.09375 C 121.570312 -2.695312 113.535156 0 101.796875 0 L 13.40625 0 L 9.203125 -26 C 11.597656 -24.800781 14.195312 -23.703125 17 -22.703125 C 19.800781 -21.703125 23.601562 -21.203125 28.40625 -21.203125 L 75.59375 -21.203125 C 79.46875 -21.203125 81.96875 -21.535156 83.09375 -22.203125 C 84.226562 -22.867188 84.796875 -24.398438 84.796875 -26.796875 L 84.796875 -35.59375 C 84.796875 -37.863281 84.226562 -39.363281 83.09375 -40.09375 C 81.96875 -40.832031 79.46875 -41.203125 75.59375 -41.203125 L 35.796875 -41.203125 C 26.066406 -41.203125 19.132812 -43.164062 15 -47.09375 C 10.863281 -51.03125 8.796875 -58.332031 8.796875 -69 L 8.796875 -97.59375 C 8.796875 -107.863281 11.160156 -115.566406 15.890625 -120.703125 C 20.628906 -125.835938 27.265625 -128.40625 35.796875 -128.40625 Z M 126.796875 -128.40625 "/></g></g></g><g fill="#ffffff" fill-opacity="1"><g transform="translate(506.411081, 432.524515)"><g><path d="M 90.796875 -94 L 137.203125 -94 C 136.128906 -92.132812 135.191406 -89.929688 134.390625 -87.390625 C 133.597656 -84.859375 133.203125 -81.195312 133.203125 -76.40625 L 133.203125 35.59375 L 81.59375 35.59375 C 82.664062 33.59375 83.597656 31.328125 84.390625 28.796875 C 85.191406 26.265625 85.59375 22.597656 85.59375 17.796875 L 85.59375 -9.203125 L 85.203125 -9.203125 C 85.066406 -8.796875 84.898438 -8.359375 84.703125 -7.890625 C 84.503906 -7.429688 84.335938 -6.9375 84.203125 -6.40625 C 83.398438 -4.800781 82.164062 -3.332031 80.5 -2 C 78.832031 -0.664062 76.332031 0 73 0 L 36 0 C 25.195312 0 17.5625 -2.734375 13.09375 -8.203125 C 8.632812 -13.671875 6.40625 -20.671875 6.40625 -29.203125 L 6.40625 -64.796875 C 6.40625 -73.460938 8.632812 -80.492188 13.09375 -85.890625 C 17.5625 -91.296875 25.195312 -94 36 -94 L 75.796875 -94 C 78.460938 -94 80.5625 -93.460938 82.09375 -92.390625 C 83.632812 -91.328125 85.070312 -89.726562 86.40625 -87.59375 C 86.664062 -87.0625 86.960938 -86.492188 87.296875 -85.890625 C 87.628906 -85.296875 87.929688 -84.664062 88.203125 -84 Z M 85.59375 -25.59375 L 85.59375 -68.40625 C 85.59375 -71.070312 85.0625 -72.9375 84 -74 C 82.9375 -75.0625 81.269531 -75.59375 79 -75.59375 L 60.203125 -75.59375 C 57.929688 -75.59375 56.257812 -75.0625 55.1875 -74 C 54.125 -72.9375 53.59375 -71.070312 53.59375 -68.40625 L 53.59375 -25.59375 C 53.59375 -23.0625 54.125 -21.226562 55.1875 -20.09375 C 56.257812 -18.96875 57.929688 -18.40625 60.203125 -18.40625 L 79 -18.40625 C 81.269531 -18.40625 82.9375 -18.96875 84 -20.09375 C 85.0625 -21.226562 85.59375 -23.0625 85.59375 -25.59375 Z M 85.59375 -25.59375 "/></g></g></g><g fill="#ffffff" fill-opacity="1"><g transform="translate(647.607326, 432.524515)"><g><path d="M 141.40625 0 L 92.203125 0 L 90.796875 -9.796875 L 90.40625 -9.796875 C 90.40625 -9.660156 90.367188 -9.5625 90.296875 -9.5 C 90.234375 -9.4375 90.203125 -9.335938 90.203125 -9.203125 C 89.128906 -6.929688 87.691406 -4.828125 85.890625 -2.890625 C 84.097656 -0.960938 81.535156 0 78.203125 0 L 40 0 C 28.9375 0 20.9375 -3.066406 16 -9.203125 C 11.0625 -15.335938 8.59375 -23.671875 8.59375 -34.203125 L 8.59375 -72.40625 C 8.59375 -78.269531 8.160156 -82.566406 7.296875 -85.296875 C 6.429688 -88.035156 5.398438 -90.46875 4.203125 -92.59375 C 4.066406 -92.863281 3.929688 -93.097656 3.796875 -93.296875 C 3.660156 -93.492188 3.53125 -93.726562 3.40625 -94 L 55.796875 -94 L 55.796875 -26.203125 C 55.796875 -23.265625 56.363281 -21.226562 57.5 -20.09375 C 58.632812 -18.96875 60.664062 -18.40625 63.59375 -18.40625 L 80.796875 -18.40625 C 83.734375 -18.40625 85.765625 -18.96875 86.890625 -20.09375 C 88.023438 -21.226562 88.59375 -23.265625 88.59375 -26.203125 L 88.59375 -72.40625 C 88.59375 -78.269531 88.160156 -82.566406 87.296875 -85.296875 C 86.429688 -88.035156 85.398438 -90.46875 84.203125 -92.59375 C 84.066406 -92.863281 83.929688 -93.097656 83.796875 -93.296875 C 83.660156 -93.492188 83.53125 -93.726562 83.40625 -94 L 136.203125 -94 L 136.203125 -21.59375 C 136.203125 -15.726562 136.632812 -11.425781 137.5 -8.6875 C 138.363281 -5.957031 139.394531 -3.53125 140.59375 -1.40625 C 140.726562 -1.132812 140.863281 -0.898438 141 -0.703125 C 141.132812 -0.503906 141.269531 -0.269531 141.40625 0 Z M 141.40625 0 "/></g></g></g><g fill="#ffffff" fill-opacity="1"><g transform="translate(792.403436, 432.524515)"><g><path d="M 14.203125 -94 L 100.59375 -94 C 111.925781 -94 120.023438 -91.332031 124.890625 -86 C 129.765625 -80.664062 132.203125 -71.53125 132.203125 -58.59375 L 132.203125 -17.59375 C 132.203125 -12.800781 132.632812 -9.132812 133.5 -6.59375 C 134.363281 -4.0625 135.460938 -1.863281 136.796875 0 L 89.203125 0 L 86.796875 -10.40625 L 86.40625 -10.40625 C 85.195312 -6.269531 83.289062 -3.5 80.6875 -2.09375 C 78.09375 -0.695312 73.597656 0 67.203125 0 L 33.59375 0 C 23.0625 0 15.894531 -2.296875 12.09375 -6.890625 C 8.300781 -11.492188 6.40625 -18.664062 6.40625 -28.40625 L 6.40625 -35.203125 C 6.40625 -45.066406 8.300781 -52.265625 12.09375 -56.796875 C 15.894531 -61.328125 23.0625 -63.59375 33.59375 -63.59375 L 76.59375 -63.59375 C 79.925781 -63.59375 82.09375 -64.0625 83.09375 -65 C 84.09375 -65.9375 84.59375 -67.46875 84.59375 -69.59375 C 84.59375 -71.726562 84.09375 -73.257812 83.09375 -74.1875 C 82.09375 -75.125 79.925781 -75.59375 76.59375 -75.59375 L 29.59375 -75.59375 C 26.132812 -75.59375 23.238281 -75.394531 20.90625 -75 C 18.570312 -74.601562 16.335938 -74.003906 14.203125 -73.203125 C 13.671875 -72.929688 13.132812 -72.660156 12.59375 -72.390625 C 12.0625 -72.128906 11.460938 -71.863281 10.796875 -71.59375 Z M 84.59375 -45.203125 L 63.59375 -45.203125 C 60 -45.066406 57.429688 -44.566406 55.890625 -43.703125 C 54.359375 -42.835938 53.59375 -40.671875 53.59375 -37.203125 L 53.59375 -26.40625 C 53.59375 -23.070312 54.359375 -20.9375 55.890625 -20 C 57.429688 -19.0625 60 -18.53125 63.59375 -18.40625 L 74.59375 -18.40625 C 79.132812 -18.40625 81.9375 -19.132812 83 -20.59375 C 84.0625 -22.0625 84.59375 -25.796875 84.59375 -31.796875 Z M 84.59375 -45.203125 "/></g></g></g><g fill="#ffffff" fill-opacity="1"><g transform="translate(933.599674, 432.524515)"><g><path d="M 137.203125 0 L 89.59375 0 L 87 -10 C 86.601562 -9.195312 86.203125 -8.425781 85.796875 -7.6875 C 85.398438 -6.957031 85 -6.257812 84.59375 -5.59375 C 83.394531 -3.726562 82.128906 -2.328125 80.796875 -1.390625 C 79.460938 -0.460938 77.796875 0 75.796875 0 L 36 0 C 25.195312 0 17.5625 -2.734375 13.09375 -8.203125 C 8.632812 -13.671875 6.40625 -20.671875 6.40625 -29.203125 L 6.40625 -64.796875 C 6.40625 -73.460938 8.632812 -80.492188 13.09375 -85.890625 C 17.5625 -91.296875 25.195312 -94 36 -94 L 73 -94 C 76.332031 -94 78.832031 -93.332031 80.5 -92 C 82.164062 -90.664062 83.398438 -89.195312 84.203125 -87.59375 C 84.335938 -87.0625 84.503906 -86.5625 84.703125 -86.09375 C 84.898438 -85.632812 85.066406 -85.203125 85.203125 -84.796875 L 85.59375 -84.796875 L 85.59375 -110.796875 C 85.59375 -115.597656 85.191406 -119.265625 84.390625 -121.796875 C 83.597656 -124.328125 82.664062 -126.53125 81.59375 -128.40625 L 133.203125 -128.40625 L 133.203125 -17.59375 C 133.203125 -12.800781 133.597656 -9.132812 134.390625 -6.59375 C 135.191406 -4.0625 136.128906 -1.863281 137.203125 0 Z M 85.59375 -25.59375 L 85.59375 -68.40625 C 85.59375 -71.070312 85.0625 -72.9375 84 -74 C 82.9375 -75.0625 81.269531 -75.59375 79 -75.59375 L 60.203125 -75.59375 C 57.929688 -75.59375 56.257812 -75.0625 55.1875 -74 C 54.125 -72.9375 53.59375 -71.070312 53.59375 -68.40625 L 53.59375 -25.59375 C 53.59375 -23.0625 54.125 -21.226562 55.1875 -20.09375 C 56.257812 -18.96875 57.929688 -18.40625 60.203125 -18.40625 L 79 -18.40625 C 81.269531 -18.40625 82.9375 -18.96875 84 -20.09375 C 85.0625 -21.226562 85.59375 -23.0625 85.59375 -25.59375 Z M 85.59375 -25.59375 "/></g></g></g><g fill="#ffffff" fill-opacity="1"><g transform="translate(233.718744, 550.024456)"><g><path d="M 30.546875 0 L 4.046875 0 L 4.046875 -35.890625 L 30.203125 -35.890625 L 30.203125 -31.59375 L 8.90625 -31.59375 L 8.90625 -20.609375 L 28.546875 -20.609375 L 28.546875 -16.3125 L 8.90625 -16.3125 L 8.90625 -4.296875 L 30.546875 -4.296875 Z M 30.546875 0 "/></g></g></g><g fill="#ffffff" fill-opacity="1"><g transform="translate(266.208783, 550.024456)"><g><path d="M 3.296875 -26.140625 L 7.453125 -26.140625 L 7.453125 -22.46875 L 7.546875 -22.46875 C 9.515625 -25.425781 12.148438 -26.90625 15.453125 -26.90625 C 18.722656 -26.90625 21.039062 -25.488281 22.40625 -22.65625 C 23.664062 -24.1875 24.878906 -25.273438 26.046875 -25.921875 C 27.222656 -26.578125 28.671875 -26.90625 30.390625 -26.90625 C 32.660156 -26.90625 34.578125 -26.164062 36.140625 -24.6875 C 37.710938 -23.207031 38.5 -21.007812 38.5 -18.09375 L 38.5 0 L 34.109375 0 L 34.109375 -16.890625 C 34.109375 -18.929688 33.722656 -20.453125 32.953125 -21.453125 C 32.191406 -22.453125 30.957031 -22.953125 29.25 -22.953125 C 27.519531 -22.953125 26.0625 -22.25 24.875 -20.84375 C 23.6875 -19.445312 23.09375 -17.8125 23.09375 -15.9375 L 23.09375 0 L 18.703125 0 L 18.703125 -18.09375 C 18.703125 -19.601562 18.351562 -20.789062 17.65625 -21.65625 C 16.957031 -22.519531 15.9375 -22.953125 14.59375 -22.953125 C 12.5 -22.953125 10.820312 -22.171875 9.5625 -20.609375 C 8.3125 -19.046875 7.6875 -16.929688 7.6875 -14.265625 L 7.6875 0 L 3.296875 0 Z M 3.296875 -26.140625 "/></g></g></g><g fill="#ffffff" fill-opacity="1"><g transform="translate(307.706202, 550.024456)"><g><path d="M 19.1875 -13.359375 C 18.863281 -13.015625 18.222656 -12.734375 17.265625 -12.515625 C 16.316406 -12.304688 14.539062 -12.03125 11.9375 -11.6875 C 10.019531 -11.46875 8.609375 -11 7.703125 -10.28125 C 6.796875 -9.5625 6.34375 -8.617188 6.34375 -7.453125 C 6.34375 -6.015625 6.722656 -4.894531 7.484375 -4.09375 C 8.253906 -3.300781 9.476562 -2.90625 11.15625 -2.90625 C 13.257812 -2.90625 15.125 -3.503906 16.75 -4.703125 C 18.375 -5.898438 19.1875 -7.351562 19.1875 -9.0625 Z M 3.09375 -18.1875 C 3.195312 -21.132812 4.15625 -23.320312 5.96875 -24.75 C 7.78125 -26.1875 10.421875 -26.90625 13.890625 -26.90625 C 16.660156 -26.90625 18.976562 -26.273438 20.84375 -25.015625 C 22.71875 -23.765625 23.65625 -21.960938 23.65625 -19.609375 L 23.65625 -4.546875 C 23.65625 -3.515625 24.117188 -3 25.046875 -3 C 25.421875 -3 25.898438 -3.066406 26.484375 -3.203125 L 26.484375 0 C 25.691406 0.320312 24.863281 0.484375 24 0.484375 C 22.5 0.484375 21.382812 0.164062 20.65625 -0.46875 C 19.925781 -1.113281 19.539062 -2.117188 19.5 -3.484375 C 17 -0.660156 13.851562 0.75 10.0625 0.75 C 7.582031 0.75 5.59375 0.0507812 4.09375 -1.34375 C 2.601562 -2.738281 1.859375 -4.5625 1.859375 -6.8125 C 1.859375 -9.101562 2.507812 -10.957031 3.8125 -12.375 C 5.113281 -13.789062 7.007812 -14.644531 9.5 -14.9375 L 17.265625 -15.890625 C 18.660156 -16.109375 19.359375 -17.144531 19.359375 -19 C 19.359375 -20.363281 18.847656 -21.410156 17.828125 -22.140625 C 16.816406 -22.878906 15.273438 -23.25 13.203125 -23.25 C 11.367188 -23.25 9.957031 -22.835938 8.96875 -22.015625 C 7.988281 -21.203125 7.398438 -19.925781 7.203125 -18.1875 Z M 3.09375 -18.1875 "/></g></g></g><g fill="#ffffff" fill-opacity="1"><g transform="translate(335.167729, 550.024456)"><g><path d="M 3.296875 -30.90625 L 3.296875 -35.890625 L 7.6875 -35.890625 L 7.6875 -30.90625 Z M 7.6875 0 L 3.296875 0 L 3.296875 -26.140625 L 7.6875 -26.140625 Z M 7.6875 0 "/></g></g></g><g fill="#ffffff" fill-opacity="1"><g transform="translate(346.176751, 550.024456)"><g><path d="M 7.6875 0 L 3.296875 0 L 3.296875 -35.890625 L 7.6875 -35.890625 Z M 7.6875 0 "/></g></g></g><g fill="#ffffff" fill-opacity="1"><g transform="translate(357.185772, 550.024456)"><g><path d="M 9.546875 -20.515625 L 4.34375 -20.515625 L 4.34375 -25.8125 L 9.546875 -25.8125 Z M 9.546875 0 L 4.34375 0 L 4.34375 -5.296875 L 9.546875 -5.296875 Z M 9.546875 0 "/></g></g></g><g fill="#ffffff" fill-opacity="1"><g transform="translate(26.308599, 619.774453)"><g><path d="M 4.046875 -35.890625 L 19.796875 -35.890625 C 22.890625 -35.890625 25.351562 -35.050781 27.1875 -33.375 C 29.03125 -31.695312 29.953125 -29.523438 29.953125 -26.859375 C 29.953125 -25.242188 29.550781 -23.769531 28.75 -22.4375 C 27.945312 -21.113281 26.742188 -20.085938 25.140625 -19.359375 C 27.367188 -18.515625 29.007812 -17.390625 30.0625 -15.984375 C 31.113281 -14.585938 31.640625 -12.789062 31.640625 -10.59375 C 31.640625 -7.5 30.523438 -4.957031 28.296875 -2.96875 C 26.066406 -0.988281 23.117188 0 19.453125 0 L 4.046875 0 Z M 8.84375 -4.15625 L 19.1875 -4.15625 C 21.726562 -4.15625 23.632812 -4.742188 24.90625 -5.921875 C 26.175781 -7.097656 26.8125 -8.6875 26.8125 -10.6875 C 26.8125 -12.726562 26.101562 -14.25 24.6875 -15.25 C 23.269531 -16.25 21.175781 -16.75 18.40625 -16.75 L 8.84375 -16.75 Z M 8.84375 -20.703125 L 17.65625 -20.703125 C 20.226562 -20.703125 22.109375 -21.171875 23.296875 -22.109375 C 24.492188 -23.046875 25.09375 -24.503906 25.09375 -26.484375 C 25.09375 -28.191406 24.523438 -29.492188 23.390625 -30.390625 C 22.265625 -31.285156 20.367188 -31.734375 17.703125 -31.734375 L 8.84375 -31.734375 Z M 8.84375 -20.703125 "/></g></g></g><g fill="#ffffff" fill-opacity="1"><g transform="translate(59.897098, 619.774453)"><g><path d="M 21.234375 -15.15625 C 21.015625 -17.988281 20.269531 -19.992188 19 -21.171875 C 17.726562 -22.359375 16.039062 -22.953125 13.9375 -22.953125 C 11.8125 -22.953125 10.09375 -22.203125 8.78125 -20.703125 C 7.46875 -19.203125 6.769531 -17.351562 6.6875 -15.15625 Z M 25.4375 -8.203125 C 24.945312 -5.503906 23.617188 -3.265625 21.453125 -1.484375 C 19.554688 0.00390625 17.050781 0.769531 13.9375 0.8125 C 10.28125 0.769531 7.375 -0.429688 5.21875 -2.796875 C 3.070312 -5.160156 2 -8.347656 2 -12.359375 C 2 -16.941406 3.101562 -20.507812 5.3125 -23.0625 C 7.53125 -25.625 10.609375 -26.90625 14.546875 -26.90625 C 18.078125 -26.90625 20.835938 -25.585938 22.828125 -22.953125 C 24.816406 -20.316406 25.8125 -16.546875 25.8125 -11.640625 L 6.6875 -11.640625 C 6.6875 -8.910156 7.320312 -6.796875 8.59375 -5.296875 C 9.863281 -3.796875 11.769531 -3.046875 14.3125 -3.046875 C 16.101562 -3.046875 17.640625 -3.585938 18.921875 -4.671875 C 20.203125 -5.753906 20.910156 -6.929688 21.046875 -8.203125 Z M 25.4375 -8.203125 "/></g></g></g><g fill="#ffffff" fill-opacity="1"><g transform="translate(87.602728, 619.774453)"><g><path d="M 19.1875 -13.359375 C 18.863281 -13.015625 18.222656 -12.734375 17.265625 -12.515625 C 16.316406 -12.304688 14.539062 -12.03125 11.9375 -11.6875 C 10.019531 -11.46875 8.609375 -11 7.703125 -10.28125 C 6.796875 -9.5625 6.34375 -8.617188 6.34375 -7.453125 C 6.34375 -6.015625 6.722656 -4.894531 7.484375 -4.09375 C 8.253906 -3.300781 9.476562 -2.90625 11.15625 -2.90625 C 13.257812 -2.90625 15.125 -3.503906 16.75 -4.703125 C 18.375 -5.898438 19.1875 -7.351562 19.1875 -9.0625 Z M 3.09375 -18.1875 C 3.195312 -21.132812 4.15625 -23.320312 5.96875 -24.75 C 7.78125 -26.1875 10.421875 -26.90625 13.890625 -26.90625 C 16.660156 -26.90625 18.976562 -26.273438 20.84375 -25.015625 C 22.71875 -23.765625 23.65625 -21.960938 23.65625 -19.609375 L 23.65625 -4.546875 C 23.65625 -3.515625 24.117188 -3 25.046875 -3 C 25.421875 -3 25.898438 -3.066406 26.484375 -3.203125 L 26.484375 0 C 25.691406 0.320312 24.863281 0.484375 24 0.484375 C 22.5 0.484375 21.382812 0.164062 20.65625 -0.46875 C 19.925781 -1.113281 19.539062 -2.117188 19.5 -3.484375 C 17 -0.660156 13.851562 0.75 10.0625 0.75 C 7.582031 0.75 5.59375 0.0507812 4.09375 -1.34375 C 2.601562 -2.738281 1.859375 -4.5625 1.859375 -6.8125 C 1.859375 -9.101562 2.507812 -10.957031 3.8125 -12.375 C 5.113281 -13.789062 7.007812 -14.644531 9.5 -14.9375 L 17.265625 -15.890625 C 18.660156 -16.109375 19.359375 -17.144531 19.359375 -19 C 19.359375 -20.363281 18.847656 -21.410156 17.828125 -22.140625 C 16.816406 -22.878906 15.273438 -23.25 13.203125 -23.25 C 11.367188 -23.25 9.957031 -22.835938 8.96875 -22.015625 C 7.988281 -21.203125 7.398438 -19.925781 7.203125 -18.1875 Z M 3.09375 -18.1875 "/></g></g></g><g fill="#ffffff" fill-opacity="1"><g transform="translate(115.064256, 619.774453)"><g><path d="M 25 0 L 19.359375 0 L 11.203125 -13.203125 L 7.546875 -9.90625 L 7.546875 0 L 3.296875 0 L 3.296875 -35.890625 L 7.546875 -35.890625 L 7.546875 -15.09375 L 18.796875 -26.140625 L 24.390625 -26.140625 L 14.40625 -16.40625 Z M 25 0 "/></g></g></g><g fill="#ffffff" fill-opacity="1"><g transform="translate(140.060348, 619.774453)"><g><path d="M 25.203125 -25.390625 C 25.097656 -27.671875 24.242188 -29.457031 22.640625 -30.75 C 21.035156 -32.039062 18.925781 -32.6875 16.3125 -32.6875 C 13.675781 -32.6875 11.648438 -32.144531 10.234375 -31.0625 C 8.816406 -29.976562 8.109375 -28.421875 8.109375 -26.390625 C 8.109375 -25.296875 8.414062 -24.359375 9.03125 -23.578125 C 9.65625 -22.796875 10.765625 -22.21875 12.359375 -21.84375 L 22.609375 -19.5 C 25.378906 -18.90625 27.429688 -17.765625 28.765625 -16.078125 C 30.097656 -14.390625 30.765625 -12.332031 30.765625 -9.90625 C 30.765625 -6.363281 29.460938 -3.664062 26.859375 -1.8125 C 24.253906 0.03125 20.867188 0.953125 16.703125 0.953125 C 13.523438 0.953125 11.019531 0.546875 9.1875 -0.265625 C 7.363281 -1.078125 5.742188 -2.367188 4.328125 -4.140625 C 2.910156 -5.921875 2.203125 -8.40625 2.203125 -11.59375 L 6.734375 -11.59375 C 6.734375 -8.925781 7.617188 -6.859375 9.390625 -5.390625 C 11.171875 -3.929688 13.59375 -3.203125 16.65625 -3.203125 C 19.613281 -3.203125 21.914062 -3.722656 23.5625 -4.765625 C 25.21875 -5.816406 26.046875 -7.3125 26.046875 -9.25 C 26.046875 -11.007812 25.550781 -12.320312 24.5625 -13.1875 C 23.582031 -14.0625 21.660156 -14.832031 18.796875 -15.5 L 11.0625 -17.3125 C 8.488281 -17.894531 6.566406 -18.914062 5.296875 -20.375 C 4.023438 -21.832031 3.390625 -23.625 3.390625 -25.75 C 3.390625 -28.976562 4.472656 -31.632812 6.640625 -33.71875 C 8.816406 -35.800781 11.851562 -36.84375 15.75 -36.84375 C 20.144531 -36.84375 23.535156 -35.925781 25.921875 -34.09375 C 28.304688 -32.257812 29.585938 -29.359375 29.765625 -25.390625 Z M 25.203125 -25.390625 "/></g></g></g><g fill="#ffffff" fill-opacity="1"><g transform="translate(173.160643, 619.774453)"><g><path d="M 20.75 -11.84375 C 20.75 -15.550781 20.164062 -18.328125 19 -20.171875 C 17.84375 -22.023438 16.078125 -22.953125 13.703125 -22.953125 C 11.398438 -22.953125 9.628906 -22.203125 8.390625 -20.703125 C 7.160156 -19.203125 6.546875 -16.6875 6.546875 -13.15625 C 6.546875 -10.019531 7.171875 -7.550781 8.421875 -5.75 C 9.671875 -3.945312 11.394531 -3.046875 13.59375 -3.046875 C 15.53125 -3.046875 17.207031 -3.78125 18.625 -5.25 C 20.039062 -6.71875 20.75 -8.914062 20.75 -11.84375 Z M 24.953125 10.359375 L 20.5625 10.359375 L 20.5625 -2.765625 L 20.453125 -2.765625 C 18.773438 -0.421875 16.457031 0.75 13.5 0.75 C 9.84375 0.75 7.007812 -0.601562 5 -3.3125 C 3 -6.03125 2 -9.539062 2 -13.84375 C 2 -17.65625 2.984375 -20.785156 4.953125 -23.234375 C 6.921875 -25.679688 9.566406 -26.90625 12.890625 -26.90625 C 16.191406 -26.90625 18.796875 -25.425781 20.703125 -22.46875 L 20.796875 -22.46875 L 20.796875 -26.140625 L 24.953125 -26.140625 Z M 24.953125 10.359375 "/></g></g></g><g fill="#ffffff" fill-opacity="1"><g transform="translate(201.403298, 619.774453)"><g><path d="M 3.046875 -26.140625 L 7.453125 -26.140625 L 7.453125 -8.796875 C 7.453125 -6.867188 7.882812 -5.425781 8.75 -4.46875 C 9.625 -3.519531 10.875 -3.046875 12.5 -3.046875 C 14.757812 -3.046875 16.523438 -3.847656 17.796875 -5.453125 C 19.066406 -7.054688 19.703125 -9.15625 19.703125 -11.75 L 19.703125 -26.140625 L 24.09375 -26.140625 L 24.09375 0 L 19.953125 0 L 19.953125 -3.8125 L 19.84375 -3.90625 C 18.1875 -0.800781 15.421875 0.75 11.546875 0.75 C 9.035156 0.75 6.988281 0.0664062 5.40625 -1.296875 C 3.832031 -2.660156 3.046875 -4.675781 3.046875 -7.34375 Z M 3.046875 -26.140625 "/></g></g></g><g fill="#ffffff" fill-opacity="1"><g transform="translate(228.791606, 619.774453)"><g><path d="M 19.1875 -13.359375 C 18.863281 -13.015625 18.222656 -12.734375 17.265625 -12.515625 C 16.316406 -12.304688 14.539062 -12.03125 11.9375 -11.6875 C 10.019531 -11.46875 8.609375 -11 7.703125 -10.28125 C 6.796875 -9.5625 6.34375 -8.617188 6.34375 -7.453125 C 6.34375 -6.015625 6.722656 -4.894531 7.484375 -4.09375 C 8.253906 -3.300781 9.476562 -2.90625 11.15625 -2.90625 C 13.257812 -2.90625 15.125 -3.503906 16.75 -4.703125 C 18.375 -5.898438 19.1875 -7.351562 19.1875 -9.0625 Z M 3.09375 -18.1875 C 3.195312 -21.132812 4.15625 -23.320312 5.96875 -24.75 C 7.78125 -26.1875 10.421875 -26.90625 13.890625 -26.90625 C 16.660156 -26.90625 18.976562 -26.273438 20.84375 -25.015625 C 22.71875 -23.765625 23.65625 -21.960938 23.65625 -19.609375 L 23.65625 -4.546875 C 23.65625 -3.515625 24.117188 -3 25.046875 -3 C 25.421875 -3 25.898438 -3.066406 26.484375 -3.203125 L 26.484375 0 C 25.691406 0.320312 24.863281 0.484375 24 0.484375 C 22.5 0.484375 21.382812 0.164062 20.65625 -0.46875 C 19.925781 -1.113281 19.539062 -2.117188 19.5 -3.484375 C 17 -0.660156 13.851562 0.75 10.0625 0.75 C 7.582031 0.75 5.59375 0.0507812 4.09375 -1.34375 C 2.601562 -2.738281 1.859375 -4.5625 1.859375 -6.8125 C 1.859375 -9.101562 2.507812 -10.957031 3.8125 -12.375 C 5.113281 -13.789062 7.007812 -14.644531 9.5 -14.9375 L 17.265625 -15.890625 C 18.660156 -16.109375 19.359375 -17.144531 19.359375 -19 C 19.359375 -20.363281 18.847656 -21.410156 17.828125 -22.140625 C 16.816406 -22.878906 15.273438 -23.25 13.203125 -23.25 C 11.367188 -23.25 9.957031 -22.835938 8.96875 -22.015625 C 7.988281 -21.203125 7.398438 -19.925781 7.203125 -18.1875 Z M 3.09375 -18.1875 "/></g></g></g><g fill="#ffffff" fill-opacity="1"><g transform="translate(256.253122, 619.774453)"><g><path d="M 6.546875 -13.15625 C 6.546875 -9.914062 7.1875 -7.421875 8.46875 -5.671875 C 9.757812 -3.921875 11.46875 -3.046875 13.59375 -3.046875 C 15.632812 -3.046875 17.335938 -3.796875 18.703125 -5.296875 C 20.066406 -6.796875 20.75 -8.976562 20.75 -11.84375 C 20.75 -15.519531 20.164062 -18.289062 19 -20.15625 C 17.84375 -22.019531 16.078125 -22.953125 13.703125 -22.953125 C 11.429688 -22.953125 9.671875 -22.207031 8.421875 -20.71875 C 7.171875 -19.238281 6.546875 -16.71875 6.546875 -13.15625 Z M 25.203125 0 L 21.046875 0 L 21.046875 -3.59375 L 20.953125 -3.59375 C 19.285156 -0.695312 16.769531 0.75 13.40625 0.75 C 9.769531 0.75 6.957031 -0.628906 4.96875 -3.390625 C 2.988281 -6.160156 2 -9.644531 2 -13.84375 C 2 -17.71875 2.984375 -20.863281 4.953125 -23.28125 C 6.921875 -25.695312 9.566406 -26.90625 12.890625 -26.90625 C 16.160156 -26.90625 18.765625 -25.425781 20.703125 -22.46875 L 20.796875 -22.75 L 20.796875 -35.890625 L 25.203125 -35.890625 Z M 25.203125 0 "/></g></g></g><g fill="#ffffff" fill-opacity="1"><g transform="translate(284.739891, 619.774453)"><g><path d="M 26.859375 -15.75 C 26.859375 -16.945312 26.453125 -18.015625 25.640625 -18.953125 C 24.835938 -19.890625 23.875 -20.359375 22.75 -20.359375 C 20.71875 -20.359375 18.953125 -19.316406 17.453125 -17.234375 C 15.953125 -15.148438 15.203125 -12.9375 15.203125 -10.59375 C 15.203125 -9.09375 15.601562 -7.910156 16.40625 -7.046875 C 17.207031 -6.191406 18.207031 -5.765625 19.40625 -5.765625 C 21.332031 -5.765625 23.054688 -6.851562 24.578125 -9.03125 C 26.097656 -11.21875 26.859375 -13.457031 26.859375 -15.75 Z M 29.390625 -23.140625 L 32.78125 -23.140625 C 32.363281 -21.578125 31.507812 -18.644531 30.21875 -14.34375 C 28.9375 -10.050781 28.296875 -7.515625 28.296875 -6.734375 C 28.296875 -5.835938 28.644531 -5.390625 29.34375 -5.390625 C 31.050781 -5.390625 32.660156 -6.550781 34.171875 -8.875 C 35.691406 -11.195312 36.453125 -13.644531 36.453125 -16.21875 C 36.453125 -19.90625 35.132812 -22.972656 32.5 -25.421875 C 29.863281 -27.878906 26.535156 -29.109375 22.515625 -29.109375 C 18.097656 -29.109375 14.457031 -27.585938 11.59375 -24.546875 C 8.726562 -21.515625 7.296875 -17.660156 7.296875 -12.984375 C 7.296875 -8.203125 8.742188 -4.441406 11.640625 -1.703125 C 14.535156 1.023438 18.273438 2.390625 22.859375 2.390625 C 27.347656 2.390625 31.289062 0.65625 34.6875 -2.8125 L 38.0625 -2.8125 C 34.21875 2.726562 29.113281 5.5 22.75 5.5 C 17.3125 5.5 12.769531 3.878906 9.125 0.640625 C 5.476562 -2.585938 3.65625 -7.050781 3.65625 -12.75 C 3.65625 -18.25 5.445312 -22.863281 9.03125 -26.59375 C 12.613281 -30.332031 17.109375 -32.203125 22.515625 -32.203125 C 27.347656 -32.203125 31.421875 -30.691406 34.734375 -27.671875 C 38.046875 -24.648438 39.703125 -20.960938 39.703125 -16.609375 C 39.703125 -12.628906 38.375 -9.222656 35.71875 -6.390625 C 33.0625 -3.566406 30.390625 -2.15625 27.703125 -2.15625 C 25.867188 -2.15625 24.820312 -3.1875 24.5625 -5.25 L 24.4375 -5.25 C 22.414062 -3.1875 20.40625 -2.15625 18.40625 -2.15625 C 16.40625 -2.15625 14.6875 -2.910156 13.25 -4.421875 C 11.820312 -5.929688 11.109375 -7.84375 11.109375 -10.15625 C 11.109375 -13.820312 12.226562 -17.035156 14.46875 -19.796875 C 16.71875 -22.566406 19.445312 -23.953125 22.65625 -23.953125 C 25.351562 -23.953125 27.265625 -22.648438 28.390625 -20.046875 Z M 29.390625 -23.140625 "/></g></g></g><g fill="#ffffff" fill-opacity="1"><g transform="translate(328.14131, 619.774453)"><g><path d="M 3.046875 -26.140625 L 7.453125 -26.140625 L 7.453125 -8.796875 C 7.453125 -6.867188 7.882812 -5.425781 8.75 -4.46875 C 9.625 -3.519531 10.875 -3.046875 12.5 -3.046875 C 14.757812 -3.046875 16.523438 -3.847656 17.796875 -5.453125 C 19.066406 -7.054688 19.703125 -9.15625 19.703125 -11.75 L 19.703125 -26.140625 L 24.09375 -26.140625 L 24.09375 0 L 19.953125 0 L 19.953125 -3.8125 L 19.84375 -3.90625 C 18.1875 -0.800781 15.421875 0.75 11.546875 0.75 C 9.035156 0.75 6.988281 0.0664062 5.40625 -1.296875 C 3.832031 -2.660156 3.046875 -4.675781 3.046875 -7.34375 Z M 3.046875 -26.140625 "/></g></g></g><g fill="#ffffff" fill-opacity="1"><g transform="translate(355.529607, 619.774453)"><g><path d="M 18.046875 -18.703125 C 17.972656 -20.265625 17.410156 -21.382812 16.359375 -22.0625 C 15.316406 -22.75 13.8125 -23.09375 11.84375 -23.09375 C 10.40625 -23.09375 9.175781 -22.773438 8.15625 -22.140625 C 7.144531 -21.503906 6.640625 -20.59375 6.640625 -19.40625 C 6.640625 -18.46875 6.941406 -17.773438 7.546875 -17.328125 C 8.148438 -16.878906 9.453125 -16.398438 11.453125 -15.890625 L 15.796875 -14.796875 C 18.429688 -14.128906 20.3125 -13.273438 21.4375 -12.234375 C 22.570312 -11.203125 23.140625 -9.757812 23.140625 -7.90625 C 23.140625 -5.332031 22.195312 -3.242188 20.3125 -1.640625 C 18.4375 -0.046875 15.929688 0.75 12.796875 0.75 C 9.128906 0.75 6.351562 -0.0078125 4.46875 -1.53125 C 2.59375 -3.050781 1.640625 -5.34375 1.609375 -8.40625 L 5.859375 -8.40625 C 5.921875 -6.59375 6.515625 -5.242188 7.640625 -4.359375 C 8.773438 -3.484375 10.476562 -3.046875 12.75 -3.046875 C 14.582031 -3.046875 16.039062 -3.410156 17.125 -4.140625 C 18.207031 -4.878906 18.75 -5.898438 18.75 -7.203125 C 18.75 -8.128906 18.398438 -8.867188 17.703125 -9.421875 C 17.003906 -9.972656 15.617188 -10.488281 13.546875 -10.96875 L 8.453125 -12.203125 C 6.378906 -12.722656 4.847656 -13.5 3.859375 -14.53125 C 2.878906 -15.570312 2.390625 -16.914062 2.390625 -18.5625 C 2.390625 -21.125 3.304688 -23.15625 5.140625 -24.65625 C 6.984375 -26.15625 9.390625 -26.90625 12.359375 -26.90625 C 15.515625 -26.90625 17.929688 -26.132812 19.609375 -24.59375 C 21.296875 -23.0625 22.191406 -21.097656 22.296875 -18.703125 Z M 18.046875 -18.703125 "/></g></g></g><g fill="#ffffff" fill-opacity="1"><g transform="translate(380.525699, 619.774453)"><g><path d="M 6.546875 -13.15625 C 6.546875 -9.914062 7.1875 -7.421875 8.46875 -5.671875 C 9.757812 -3.921875 11.46875 -3.046875 13.59375 -3.046875 C 15.632812 -3.046875 17.335938 -3.796875 18.703125 -5.296875 C 20.066406 -6.796875 20.75 -8.976562 20.75 -11.84375 C 20.75 -15.519531 20.164062 -18.289062 19 -20.15625 C 17.84375 -22.019531 16.078125 -22.953125 13.703125 -22.953125 C 11.429688 -22.953125 9.671875 -22.207031 8.421875 -20.71875 C 7.171875 -19.238281 6.546875 -16.71875 6.546875 -13.15625 Z M 25.203125 0 L 21.046875 0 L 21.046875 -3.59375 L 20.953125 -3.59375 C 19.285156 -0.695312 16.769531 0.75 13.40625 0.75 C 9.769531 0.75 6.957031 -0.628906 4.96875 -3.390625 C 2.988281 -6.160156 2 -9.644531 2 -13.84375 C 2 -17.71875 2.984375 -20.863281 4.953125 -23.28125 C 6.921875 -25.695312 9.566406 -26.90625 12.890625 -26.90625 C 16.160156 -26.90625 18.765625 -25.425781 20.703125 -22.46875 L 20.796875 -22.75 L 20.796875 -35.890625 L 25.203125 -35.890625 Z M 25.203125 0 "/></g></g></g><g fill="#ffffff" fill-opacity="1"><g transform="translate(409.012468, 619.774453)"><g><path d="M 5.296875 -12.359375 L 16.609375 -12.359375 L 16.609375 -28.296875 L 16.5 -28.296875 Z M 21 -8.546875 L 21 0 L 16.609375 0 L 16.609375 -8.546875 L 1.25 -8.546875 L 1.25 -12.84375 L 17.359375 -35.15625 L 21 -35.15625 L 21 -12.359375 L 26.140625 -12.359375 L 26.140625 -8.546875 Z M 21 -8.546875 "/></g></g></g><g fill="#ffffff" fill-opacity="1"><g transform="translate(436.815751, 619.774453)"><g><path d="M 1.859375 -34.40625 L 26.140625 -34.40625 L 26.140625 -30.546875 C 22.804688 -27.140625 19.753906 -22.539062 16.984375 -16.75 C 14.222656 -10.957031 12.457031 -5.375 11.6875 0 L 6.859375 0 C 7.347656 -4.425781 8.96875 -9.515625 11.71875 -15.265625 C 14.46875 -21.023438 17.625 -25.972656 21.1875 -30.109375 L 1.859375 -30.109375 Z M 1.859375 -34.40625 "/></g></g></g><g fill="#ffffff" fill-opacity="1"><g transform="translate(464.619033, 619.774453)"><g><path d="M 7.34375 -20.453125 C 9.28125 -21.921875 11.550781 -22.65625 14.15625 -22.65625 C 17.3125 -22.65625 20.023438 -21.601562 22.296875 -19.5 C 24.566406 -17.40625 25.703125 -14.707031 25.703125 -11.40625 C 25.703125 -7.800781 24.609375 -4.832031 22.421875 -2.5 C 20.234375 -0.164062 17.160156 1 13.203125 1 C 9.773438 1 7.066406 0.160156 5.078125 -1.515625 C 3.085938 -3.203125 1.929688 -5.59375 1.609375 -8.6875 L 6.15625 -8.6875 C 6.382812 -6.800781 7.125 -5.359375 8.375 -4.359375 C 9.625 -3.359375 11.363281 -2.859375 13.59375 -2.859375 C 15.757812 -2.859375 17.535156 -3.601562 18.921875 -5.09375 C 20.304688 -6.59375 21 -8.507812 21 -10.84375 C 21 -13.21875 20.273438 -15.117188 18.828125 -16.546875 C 17.378906 -17.984375 15.503906 -18.703125 13.203125 -18.703125 C 10.597656 -18.703125 8.425781 -17.585938 6.6875 -15.359375 L 2.90625 -15.546875 L 5.546875 -34.34375 L 23.75 -34.34375 L 23.75 -30.109375 L 8.84375 -30.109375 Z M 7.34375 -20.453125 "/></g></g></g><g fill="#ffffff" fill-opacity="1"><g transform="translate(492.422315, 619.774453)"><g><path d="M 9.546875 0 L 4.34375 0 L 4.34375 -5.296875 L 9.546875 -5.296875 Z M 9.546875 0 "/></g></g></g><g fill="#ffffff" fill-opacity="1"><g transform="translate(506.311734, 619.774453)"><g><path d="M 6.34375 -13.109375 C 6.34375 -10.191406 7 -7.789062 8.3125 -5.90625 C 9.632812 -4.03125 11.507812 -3.09375 13.9375 -3.09375 C 16.445312 -3.09375 18.351562 -4.078125 19.65625 -6.046875 C 20.957031 -8.023438 21.609375 -10.378906 21.609375 -13.109375 C 21.609375 -15.878906 20.957031 -18.226562 19.65625 -20.15625 C 18.351562 -22.082031 16.445312 -23.046875 13.9375 -23.046875 C 11.613281 -23.046875 9.765625 -22.140625 8.390625 -20.328125 C 7.023438 -18.515625 6.34375 -16.109375 6.34375 -13.109375 Z M 1.859375 -13.109375 C 1.859375 -17.003906 2.9375 -20.273438 5.09375 -22.921875 C 7.257812 -25.578125 10.207031 -26.90625 13.9375 -26.90625 C 17.75 -26.90625 20.726562 -25.5625 22.875 -22.875 C 25.019531 -20.1875 26.09375 -16.929688 26.09375 -13.109375 C 26.09375 -9.265625 25.023438 -5.992188 22.890625 -3.296875 C 20.765625 -0.597656 17.78125 0.75 13.9375 0.75 C 10.25 0.75 7.3125 -0.554688 5.125 -3.171875 C 2.945312 -5.796875 1.859375 -9.109375 1.859375 -13.109375 Z M 1.859375 -13.109375 "/></g></g></g><g fill="#ffffff" fill-opacity="1"><g transform="translate(534.261455, 619.774453)"><g><path d="M 7.6875 0 L 3.296875 0 L 3.296875 -26.140625 L 7.453125 -26.140625 L 7.453125 -21.796875 L 7.546875 -21.796875 C 9.453125 -25.203125 11.898438 -26.90625 14.890625 -26.90625 C 15.359375 -26.90625 15.742188 -26.859375 16.046875 -26.765625 L 16.046875 -22.1875 L 14.40625 -22.1875 C 12.4375 -22.1875 10.820312 -21.519531 9.5625 -20.1875 C 8.3125 -18.851562 7.6875 -17.191406 7.6875 -15.203125 Z M 7.6875 0 "/></g></g></g><g fill="#ffffff" fill-opacity="1"><g transform="translate(550.543101, 619.774453)"><g><path d="M 6.5 -13.15625 C 6.5 -9.945312 7.128906 -7.457031 8.390625 -5.6875 C 9.660156 -3.925781 11.378906 -3.046875 13.546875 -3.046875 C 15.648438 -3.046875 17.367188 -3.8125 18.703125 -5.34375 C 20.035156 -6.875 20.703125 -9.039062 20.703125 -11.84375 C 20.703125 -15.519531 20.117188 -18.289062 18.953125 -20.15625 C 17.796875 -22.019531 16.023438 -22.953125 13.640625 -22.953125 C 11.253906 -22.953125 9.46875 -22.15625 8.28125 -20.5625 C 7.09375 -18.976562 6.5 -16.507812 6.5 -13.15625 Z M 24.90625 -1.484375 C 24.90625 2.710938 23.894531 5.84375 21.875 7.90625 C 19.851562 9.976562 16.8125 11.015625 12.75 11.015625 C 9.8125 11.015625 7.476562 10.335938 5.75 8.984375 C 4.019531 7.628906 3.023438 5.703125 2.765625 3.203125 L 7.15625 3.203125 C 7.382812 4.472656 7.972656 5.476562 8.921875 6.21875 C 9.878906 6.96875 11.257812 7.34375 13.0625 7.34375 C 15.519531 7.34375 17.375 6.679688 18.625 5.359375 C 19.882812 4.046875 20.515625 1.910156 20.515625 -1.046875 L 20.515625 -2.90625 L 20.40625 -2.90625 C 18.757812 -0.46875 16.441406 0.75 13.453125 0.75 C 9.722656 0.75 6.875 -0.625 4.90625 -3.375 C 2.9375 -6.125 1.953125 -9.613281 1.953125 -13.84375 C 1.953125 -17.71875 2.941406 -20.863281 4.921875 -23.28125 C 6.910156 -25.695312 9.550781 -26.90625 12.84375 -26.90625 C 16.144531 -26.90625 18.75 -25.425781 20.65625 -22.46875 L 20.75 -22.46875 L 20.75 -26.140625 L 24.90625 -26.140625 Z M 24.90625 -1.484375 "/></g></g></g><g fill="#ffffff" fill-opacity="1"><g transform="translate(140.941273, 710.999984)"><g><path d="M 8.90625 -19.5625 L 20.140625 -19.5625 C 22.742188 -19.5625 24.609375 -20.09375 25.734375 -21.15625 C 26.867188 -22.21875 27.4375 -23.75 27.4375 -25.75 C 27.4375 -27.570312 26.945312 -29.023438 25.96875 -30.109375 C 25 -31.191406 23.328125 -31.734375 20.953125 -31.734375 L 8.90625 -31.734375 Z M 8.90625 0 L 4.046875 0 L 4.046875 -35.890625 L 20.65625 -35.890625 C 24.507812 -35.890625 27.425781 -35.066406 29.40625 -33.421875 C 31.394531 -31.773438 32.390625 -29.382812 32.390625 -26.25 C 32.390625 -24.175781 31.988281 -22.445312 31.1875 -21.0625 C 30.394531 -19.6875 29.144531 -18.550781 27.4375 -17.65625 C 28.90625 -17.113281 29.960938 -16.359375 30.609375 -15.390625 C 31.265625 -14.421875 31.640625 -12.921875 31.734375 -10.890625 L 32.0625 -4.203125 C 32.09375 -3.097656 32.265625 -2.320312 32.578125 -1.875 C 32.898438 -1.425781 33.34375 -1.070312 33.90625 -0.8125 L 33.90625 0 L 27.90625 0 C 27.59375 -0.894531 27.367188 -2.253906 27.234375 -4.078125 C 27.109375 -5.898438 27.046875 -7.546875 27.046875 -9.015625 C 27.046875 -9.742188 26.976562 -10.488281 26.84375 -11.25 C 26.71875 -12.019531 26.4375 -12.710938 26 -13.328125 C 25.5625 -13.953125 24.914062 -14.453125 24.0625 -14.828125 C 23.21875 -15.210938 22.082031 -15.40625 20.65625 -15.40625 L 8.90625 -15.40625 Z M 8.90625 0 "/></g></g></g><g fill="#ffffff" fill-opacity="1"><g transform="translate(176.629054, 710.999984)"><g><path d="M 6.34375 -13.109375 C 6.34375 -10.191406 7 -7.789062 8.3125 -5.90625 C 9.632812 -4.03125 11.507812 -3.09375 13.9375 -3.09375 C 16.445312 -3.09375 18.351562 -4.078125 19.65625 -6.046875 C 20.957031 -8.023438 21.609375 -10.378906 21.609375 -13.109375 C 21.609375 -15.878906 20.957031 -18.226562 19.65625 -20.15625 C 18.351562 -22.082031 16.445312 -23.046875 13.9375 -23.046875 C 11.613281 -23.046875 9.765625 -22.140625 8.390625 -20.328125 C 7.023438 -18.515625 6.34375 -16.109375 6.34375 -13.109375 Z M 1.859375 -13.109375 C 1.859375 -17.003906 2.9375 -20.273438 5.09375 -22.921875 C 7.257812 -25.578125 10.207031 -26.90625 13.9375 -26.90625 C 17.75 -26.90625 20.726562 -25.5625 22.875 -22.875 C 25.019531 -20.1875 26.09375 -16.929688 26.09375 -13.109375 C 26.09375 -9.265625 25.023438 -5.992188 22.890625 -3.296875 C 20.765625 -0.597656 17.78125 0.75 13.9375 0.75 C 10.25 0.75 7.3125 -0.554688 5.125 -3.171875 C 2.945312 -5.796875 1.859375 -9.109375 1.859375 -13.109375 Z M 1.859375 -13.109375 "/></g></g></g><g fill="#ffffff" fill-opacity="1"><g transform="translate(204.578786, 710.999984)"><g><path d="M 6.34375 -13.109375 C 6.34375 -10.191406 7 -7.789062 8.3125 -5.90625 C 9.632812 -4.03125 11.507812 -3.09375 13.9375 -3.09375 C 16.445312 -3.09375 18.351562 -4.078125 19.65625 -6.046875 C 20.957031 -8.023438 21.609375 -10.378906 21.609375 -13.109375 C 21.609375 -15.878906 20.957031 -18.226562 19.65625 -20.15625 C 18.351562 -22.082031 16.445312 -23.046875 13.9375 -23.046875 C 11.613281 -23.046875 9.765625 -22.140625 8.390625 -20.328125 C 7.023438 -18.515625 6.34375 -16.109375 6.34375 -13.109375 Z M 1.859375 -13.109375 C 1.859375 -17.003906 2.9375 -20.273438 5.09375 -22.921875 C 7.257812 -25.578125 10.207031 -26.90625 13.9375 -26.90625 C 17.75 -26.90625 20.726562 -25.5625 22.875 -22.875 C 25.019531 -20.1875 26.09375 -16.929688 26.09375 -13.109375 C 26.09375 -9.265625 25.023438 -5.992188 22.890625 -3.296875 C 20.765625 -0.597656 17.78125 0.75 13.9375 0.75 C 10.25 0.75 7.3125 -0.554688 5.125 -3.171875 C 2.945312 -5.796875 1.859375 -9.109375 1.859375 -13.109375 Z M 1.859375 -13.109375 "/></g></g></g><g fill="#ffffff" fill-opacity="1"><g transform="translate(232.528519, 710.999984)"><g><path d="M 24.609375 0 L 20.1875 0 L 20.1875 -16.09375 C 20.1875 -18.5625 19.753906 -20.320312 18.890625 -21.375 C 18.035156 -22.425781 16.601562 -22.953125 14.59375 -22.953125 C 12.625 -22.953125 10.976562 -22.203125 9.65625 -20.703125 C 8.34375 -19.203125 7.6875 -17.054688 7.6875 -14.265625 L 7.6875 0 L 3.296875 0 L 3.296875 -26.140625 L 7.453125 -26.140625 L 7.453125 -22.46875 L 7.546875 -22.46875 C 9.609375 -25.425781 12.242188 -26.90625 15.453125 -26.90625 C 18.410156 -26.90625 20.675781 -26.117188 22.25 -24.546875 C 23.820312 -22.972656 24.609375 -20.722656 24.609375 -17.796875 Z M 24.609375 0 "/></g></g></g><g fill="#ffffff" fill-opacity="1"><g transform="translate(272.317221, 710.999984)"><g><path d="M 27.8125 -35.890625 L 32.5 -35.890625 L 32.5 0 L 27.09375 0 L 8.796875 -29 L 8.6875 -29 L 8.6875 0 L 4.046875 0 L 4.046875 -35.890625 L 9.734375 -35.890625 L 27.703125 -6.90625 L 27.8125 -6.90625 Z M 27.8125 -35.890625 "/></g></g></g><g fill="#ffffff" fill-opacity="1"><g transform="translate(308.859361, 710.999984)"><g><path d="M 3.046875 -26.140625 L 7.453125 -26.140625 L 7.453125 -8.796875 C 7.453125 -6.867188 7.882812 -5.425781 8.75 -4.46875 C 9.625 -3.519531 10.875 -3.046875 12.5 -3.046875 C 14.757812 -3.046875 16.523438 -3.847656 17.796875 -5.453125 C 19.066406 -7.054688 19.703125 -9.15625 19.703125 -11.75 L 19.703125 -26.140625 L 24.09375 -26.140625 L 24.09375 0 L 19.953125 0 L 19.953125 -3.8125 L 19.84375 -3.90625 C 18.1875 -0.800781 15.421875 0.75 11.546875 0.75 C 9.035156 0.75 6.988281 0.0664062 5.40625 -1.296875 C 3.832031 -2.660156 3.046875 -4.675781 3.046875 -7.34375 Z M 3.046875 -26.140625 "/></g></g></g><g fill="#ffffff" fill-opacity="1"><g transform="translate(336.247645, 710.999984)"><g><path d="M 3.296875 -26.140625 L 7.453125 -26.140625 L 7.453125 -22.46875 L 7.546875 -22.46875 C 9.515625 -25.425781 12.148438 -26.90625 15.453125 -26.90625 C 18.722656 -26.90625 21.039062 -25.488281 22.40625 -22.65625 C 23.664062 -24.1875 24.878906 -25.273438 26.046875 -25.921875 C 27.222656 -26.578125 28.671875 -26.90625 30.390625 -26.90625 C 32.660156 -26.90625 34.578125 -26.164062 36.140625 -24.6875 C 37.710938 -23.207031 38.5 -21.007812 38.5 -18.09375 L 38.5 0 L 34.109375 0 L 34.109375 -16.890625 C 34.109375 -18.929688 33.722656 -20.453125 32.953125 -21.453125 C 32.191406 -22.453125 30.957031 -22.953125 29.25 -22.953125 C 27.519531 -22.953125 26.0625 -22.25 24.875 -20.84375 C 23.6875 -19.445312 23.09375 -17.8125 23.09375 -15.9375 L 23.09375 0 L 18.703125 0 L 18.703125 -18.09375 C 18.703125 -19.601562 18.351562 -20.789062 17.65625 -21.65625 C 16.957031 -22.519531 15.9375 -22.953125 14.59375 -22.953125 C 12.5 -22.953125 10.820312 -22.171875 9.5625 -20.609375 C 8.3125 -19.046875 7.6875 -16.929688 7.6875 -14.265625 L 7.6875 0 L 3.296875 0 Z M 3.296875 -26.140625 "/></g></g></g><g fill="#ffffff" fill-opacity="1"><g transform="translate(377.745065, 710.999984)"><g><path d="M 21.703125 -13.15625 C 21.703125 -16.65625 21.082031 -19.160156 19.84375 -20.671875 C 18.613281 -22.191406 16.847656 -22.953125 14.546875 -22.953125 C 12.222656 -22.921875 10.46875 -22.007812 9.28125 -20.21875 C 8.09375 -18.4375 7.5 -15.863281 7.5 -12.5 C 7.5 -9.0625 8.210938 -6.625 9.640625 -5.1875 C 11.078125 -3.757812 12.75 -3.046875 14.65625 -3.046875 C 16.8125 -3.046875 18.523438 -3.9375 19.796875 -5.71875 C 21.066406 -7.507812 21.703125 -9.988281 21.703125 -13.15625 Z M 3.296875 0 L 3.296875 -35.890625 L 7.6875 -35.890625 L 7.6875 -22.859375 L 7.78125 -22.859375 C 9.65625 -25.554688 12.179688 -26.90625 15.359375 -26.90625 C 18.609375 -26.90625 21.234375 -25.695312 23.234375 -23.28125 C 25.242188 -20.863281 26.25 -17.71875 26.25 -13.84375 C 26.25 -9.476562 25.238281 -5.953125 23.21875 -3.265625 C 21.195312 -0.585938 18.375 0.75 14.75 0.75 C 11.5625 0.75 9.160156 -0.582031 7.546875 -3.25 L 7.453125 -3.25 L 7.453125 0 Z M 3.296875 0 "/></g></g></g><g fill="#ffffff" fill-opacity="1"><g transform="translate(405.987708, 710.999984)"><g><path d="M 21.234375 -15.15625 C 21.015625 -17.988281 20.269531 -19.992188 19 -21.171875 C 17.726562 -22.359375 16.039062 -22.953125 13.9375 -22.953125 C 11.8125 -22.953125 10.09375 -22.203125 8.78125 -20.703125 C 7.46875 -19.203125 6.769531 -17.351562 6.6875 -15.15625 Z M 25.4375 -8.203125 C 24.945312 -5.503906 23.617188 -3.265625 21.453125 -1.484375 C 19.554688 0.00390625 17.050781 0.769531 13.9375 0.8125 C 10.28125 0.769531 7.375 -0.429688 5.21875 -2.796875 C 3.070312 -5.160156 2 -8.347656 2 -12.359375 C 2 -16.941406 3.101562 -20.507812 5.3125 -23.0625 C 7.53125 -25.625 10.609375 -26.90625 14.546875 -26.90625 C 18.078125 -26.90625 20.835938 -25.585938 22.828125 -22.953125 C 24.816406 -20.316406 25.8125 -16.546875 25.8125 -11.640625 L 6.6875 -11.640625 C 6.6875 -8.910156 7.320312 -6.796875 8.59375 -5.296875 C 9.863281 -3.796875 11.769531 -3.046875 14.3125 -3.046875 C 16.101562 -3.046875 17.640625 -3.585938 18.921875 -4.671875 C 20.203125 -5.753906 20.910156 -6.929688 21.046875 -8.203125 Z M 25.4375 -8.203125 "/></g></g></g><g fill="#ffffff" fill-opacity="1"><g transform="translate(433.693349, 710.999984)"><g><path d="M 7.6875 0 L 3.296875 0 L 3.296875 -26.140625 L 7.453125 -26.140625 L 7.453125 -21.796875 L 7.546875 -21.796875 C 9.453125 -25.203125 11.898438 -26.90625 14.890625 -26.90625 C 15.359375 -26.90625 15.742188 -26.859375 16.046875 -26.765625 L 16.046875 -22.1875 L 14.40625 -22.1875 C 12.4375 -22.1875 10.820312 -21.519531 9.5625 -20.1875 C 8.3125 -18.851562 7.6875 -17.191406 7.6875 -15.203125 Z M 7.6875 0 "/></g></g></g><g fill="#ffffff" fill-opacity="1"><g transform="translate(449.974995, 710.999984)"><g><path d="M 9.546875 -20.515625 L 4.34375 -20.515625 L 4.34375 -25.8125 L 9.546875 -25.8125 Z M 9.546875 0 L 4.34375 0 L 4.34375 -5.296875 L 9.546875 -5.296875 Z M 9.546875 0 "/></g></g></g><g fill="#ffffff" fill-opacity="1"><g transform="translate(239.449081, 780.749981)"><g><path d="M 33.734375 0 L 33.734375 -21.1875 C 33.734375 -21.46875 33.75 -22.820312 33.78125 -25.25 C 33.820312 -27.6875 33.84375 -29.320312 33.84375 -30.15625 L 33.6875 -30.15625 L 23.65625 0 L 18.84375 0 L 8.796875 -30.109375 L 8.640625 -30.109375 C 8.640625 -28.898438 8.65625 -27.179688 8.6875 -24.953125 C 8.71875 -22.722656 8.734375 -21.46875 8.734375 -21.1875 L 8.734375 0 L 4.046875 0 L 4.046875 -35.890625 L 10.984375 -35.890625 L 21.1875 -5.546875 L 21.34375 -5.546875 L 31.5 -35.890625 L 38.453125 -35.890625 L 38.453125 0 Z M 33.734375 0 "/></g></g></g><g fill="#ffffff" fill-opacity="1"><g transform="translate(281.94732, 780.749981)"><g><path d="M 17.9375 0 L 13.25 0 L 13.25 -24.953125 L 5.046875 -24.953125 L 5.046875 -28.4375 C 7.910156 -28.539062 10.039062 -29.003906 11.4375 -29.828125 C 12.84375 -30.648438 13.863281 -32.425781 14.5 -35.15625 L 17.9375 -35.15625 Z M 17.9375 0 "/></g></g></g><g fill="#ffffff" fill-opacity="1"><g transform="translate(309.750591, 780.749981)"><g><path d="M 21.234375 -17.09375 C 21.234375 -21.789062 20.609375 -25.316406 19.359375 -27.671875 C 18.117188 -30.023438 16.296875 -31.203125 13.890625 -31.203125 C 11.535156 -31.203125 9.722656 -30.023438 8.453125 -27.671875 C 7.179688 -25.316406 6.546875 -21.789062 6.546875 -17.09375 C 6.546875 -12.53125 7.171875 -9.039062 8.421875 -6.625 C 9.671875 -4.207031 11.492188 -3 13.890625 -3 C 16.296875 -3 18.117188 -4.164062 19.359375 -6.5 C 20.609375 -8.84375 21.234375 -12.375 21.234375 -17.09375 Z M 25.953125 -17.09375 C 25.953125 -11.332031 24.910156 -6.882812 22.828125 -3.75 C 20.742188 -0.613281 17.765625 0.953125 13.890625 0.953125 C 9.867188 0.953125 6.859375 -0.671875 4.859375 -3.921875 C 2.859375 -7.171875 1.859375 -11.5625 1.859375 -17.09375 C 1.859375 -22.769531 2.882812 -27.195312 4.9375 -30.375 C 6.988281 -33.5625 9.972656 -35.15625 13.890625 -35.15625 C 17.765625 -35.15625 20.742188 -33.570312 22.828125 -30.40625 C 24.910156 -27.238281 25.953125 -22.800781 25.953125 -17.09375 Z M 25.953125 -17.09375 "/></g></g></g><g fill="#ffffff" fill-opacity="1"><g transform="translate(337.553862, 780.749981)"><g><path d="M 11.203125 -20 C 11.941406 -19.925781 12.707031 -19.890625 13.5 -19.890625 C 15.570312 -19.890625 17.203125 -20.363281 18.390625 -21.3125 C 19.585938 -22.269531 20.1875 -23.71875 20.1875 -25.65625 C 20.1875 -27.21875 19.628906 -28.53125 18.515625 -29.59375 C 17.398438 -30.664062 15.796875 -31.203125 13.703125 -31.203125 C 11.367188 -31.203125 9.660156 -30.515625 8.578125 -29.140625 C 7.492188 -27.773438 6.921875 -25.945312 6.859375 -23.65625 L 2.546875 -23.65625 C 2.546875 -27.320312 3.503906 -30.15625 5.421875 -32.15625 C 7.335938 -34.15625 10.160156 -35.15625 13.890625 -35.15625 C 17.191406 -35.15625 19.828125 -34.300781 21.796875 -32.59375 C 23.765625 -30.894531 24.75 -28.664062 24.75 -25.90625 C 24.75 -22.34375 23.242188 -19.925781 20.234375 -18.65625 L 20.234375 -18.5625 C 24.140625 -17.21875 26.09375 -14.484375 26.09375 -10.359375 C 26.09375 -7.046875 24.992188 -4.332031 22.796875 -2.21875 C 20.597656 -0.101562 17.484375 0.953125 13.453125 0.953125 C 10.148438 0.953125 7.429688 0.0859375 5.296875 -1.640625 C 3.160156 -3.378906 1.960938 -6.414062 1.703125 -10.75 L 6.25 -10.75 C 6.3125 -8.039062 6.976562 -6.070312 8.25 -4.84375 C 9.519531 -3.613281 11.351562 -3 13.75 -3 C 16.0625 -3 17.914062 -3.640625 19.3125 -4.921875 C 20.707031 -6.210938 21.40625 -7.835938 21.40625 -9.796875 C 21.40625 -11.921875 20.738281 -13.53125 19.40625 -14.625 C 18.070312 -15.71875 16.003906 -16.265625 13.203125 -16.265625 C 12.535156 -16.265625 11.867188 -16.25 11.203125 -16.21875 Z M 11.203125 -20 "/></g></g></g><g fill="#ffffff" fill-opacity="1"><g transform="translate(994.593707, 539.649425)"><g><path d="M 14.21875 -35.390625 L 0.6875 -35.390625 L 0.6875 -40.203125 L 33.328125 -40.203125 L 33.328125 -35.390625 L 19.65625 -35.390625 L 19.65625 0 L 14.21875 0 Z M 14.21875 -35.390625 "/></g></g></g><g fill="#ffffff" fill-opacity="1"><g transform="translate(1028.604584, 539.649425)"><g><path d="M 14.328125 0 L 9.296875 0 L 0.84375 -29.28125 L 6.15625 -29.28125 L 11.765625 -6.265625 L 11.875 -6.265625 L 17.53125 -29.28125 L 23.078125 -29.28125 L 28.796875 -6.265625 L 28.90625 -6.265625 L 34.84375 -29.28125 L 39.703125 -29.28125 L 31.25 0 L 26.09375 0 L 20.15625 -22.671875 L 20.046875 -22.671875 Z M 14.328125 0 "/></g></g></g><g fill="#ffffff" fill-opacity="1"><g transform="translate(1069.149706, 539.649425)"><g><path d="M 3.6875 -34.625 L 3.6875 -40.203125 L 8.609375 -40.203125 L 8.609375 -34.625 Z M 8.609375 0 L 3.6875 0 L 3.6875 -29.28125 L 8.609375 -29.28125 Z M 8.609375 0 "/></g></g></g><g fill="#ffffff" fill-opacity="1"><g transform="translate(1081.480016, 539.649425)"><g><path d="M 9.625 -25.21875 L 9.625 -6.15625 C 9.625 -5.40625 9.828125 -4.832031 10.234375 -4.4375 C 10.648438 -4.050781 11.382812 -3.859375 12.4375 -3.859375 L 14.328125 -3.859375 L 14.328125 0 C 12.546875 0.257812 11.316406 0.390625 10.640625 0.390625 C 8.578125 0.390625 7.070312 -0.101562 6.125 -1.09375 C 5.175781 -2.082031 4.703125 -3.675781 4.703125 -5.875 L 4.703125 -25.21875 L 0.734375 -25.21875 L 0.734375 -29.28125 L 4.703125 -29.28125 L 4.703125 -37.46875 L 9.625 -37.46875 L 9.625 -29.28125 L 14.328125 -29.28125 L 14.328125 -25.21875 Z M 9.625 -25.21875 "/></g></g></g><g fill="#ffffff" fill-opacity="1"><g transform="translate(1096.981759, 539.649425)"><g><path d="M 23.796875 -16.984375 C 23.535156 -20.148438 22.691406 -22.394531 21.265625 -23.71875 C 19.847656 -25.039062 17.960938 -25.703125 15.609375 -25.703125 C 13.222656 -25.703125 11.296875 -24.863281 9.828125 -23.1875 C 8.359375 -21.507812 7.582031 -19.441406 7.5 -16.984375 Z M 28.5 -9.1875 C 27.945312 -6.164062 26.457031 -3.660156 24.03125 -1.671875 C 21.90625 0.00390625 19.097656 0.863281 15.609375 0.90625 C 11.515625 0.863281 8.265625 -0.476562 5.859375 -3.125 C 3.453125 -5.78125 2.25 -9.351562 2.25 -13.84375 C 2.25 -18.976562 3.488281 -22.976562 5.96875 -25.84375 C 8.445312 -28.707031 11.890625 -30.140625 16.296875 -30.140625 C 20.253906 -30.140625 23.34375 -28.660156 25.5625 -25.703125 C 27.789062 -22.753906 28.90625 -18.535156 28.90625 -13.046875 L 7.5 -13.046875 C 7.5 -9.984375 8.207031 -7.613281 9.625 -5.9375 C 11.050781 -4.257812 13.1875 -3.421875 16.03125 -3.421875 C 18.03125 -3.421875 19.75 -4.023438 21.1875 -5.234375 C 22.632812 -6.453125 23.429688 -7.769531 23.578125 -9.1875 Z M 28.5 -9.1875 "/></g></g></g><g fill="#ffffff" fill-opacity="1"><g transform="translate(1128.012584, 539.649425)"><g><path d="M 8.609375 0 L 3.6875 0 L 3.6875 -29.28125 L 8.34375 -29.28125 L 8.34375 -24.421875 L 8.453125 -24.421875 C 10.585938 -28.234375 13.332031 -30.140625 16.6875 -30.140625 C 17.207031 -30.140625 17.632812 -30.082031 17.96875 -29.96875 L 17.96875 -24.859375 L 16.140625 -24.859375 C 13.929688 -24.859375 12.125 -24.109375 10.71875 -22.609375 C 9.3125 -21.117188 8.609375 -19.257812 8.609375 -17.03125 Z M 8.609375 0 "/></g></g></g><g fill="#ffffff" fill-opacity="1"><g transform="translate(1146.24832, 539.649425)"><g><path d="M 16.6875 -41.046875 C 13.363281 -35.117188 11.265625 -30.296875 10.390625 -26.578125 C 9.515625 -22.859375 9.078125 -18.757812 9.078125 -14.28125 C 9.078125 -9.84375 9.671875 -5.707031 10.859375 -1.875 C 12.054688 1.945312 14.015625 6.4375 16.734375 11.59375 L 13.453125 11.59375 C 10.359375 7.070312 7.972656 2.796875 6.296875 -1.234375 C 4.628906 -5.265625 3.796875 -9.726562 3.796875 -14.625 C 3.796875 -19.238281 4.550781 -23.632812 6.0625 -27.8125 C 7.582031 -32 9.984375 -36.410156 13.265625 -41.046875 Z M 16.6875 -41.046875 "/></g></g></g><g fill="#ffffff" fill-opacity="1"><g transform="translate(1164.894155, 539.649425)"><g><path d="M 27.453125 0 L 21.109375 0 L 13.890625 -11.015625 L 6.84375 0 L 0.625 0 L 10.859375 -15.0625 L 1.125 -29.28125 L 7.390625 -29.28125 L 14.171875 -18.984375 L 21 -29.28125 L 26.984375 -29.28125 L 17.140625 -15.0625 Z M 27.453125 0 "/></g></g></g><g fill="#ffffff" fill-opacity="1"><g transform="translate(1192.890236, 539.649425)"><g><path d="M 1.96875 11.59375 C 5.25 5.65625 7.328125 0.832031 8.203125 -2.875 C 9.078125 -6.59375 9.515625 -10.691406 9.515625 -15.171875 C 9.515625 -19.617188 8.925781 -23.753906 7.75 -27.578125 C 6.570312 -31.410156 4.628906 -35.898438 1.921875 -41.046875 L 5.140625 -41.046875 C 8.273438 -36.523438 10.675781 -32.25 12.34375 -28.21875 C 14.007812 -24.1875 14.84375 -19.726562 14.84375 -14.84375 C 14.84375 -10.21875 14.085938 -5.8125 12.578125 -1.625 C 11.066406 2.5625 8.671875 6.96875 5.390625 11.59375 Z M 1.96875 11.59375 "/></g></g></g><g fill="#ffffff" fill-opacity="1"><g transform="translate(863.038842, 609.899581)"><g><path d="M 31.6875 -18.578125 C 31.6875 -20.003906 31.210938 -21.269531 30.265625 -22.375 C 29.316406 -23.476562 28.175781 -24.03125 26.84375 -24.03125 C 24.445312 -24.03125 22.363281 -22.800781 20.59375 -20.34375 C 18.832031 -17.882812 17.953125 -15.269531 17.953125 -12.5 C 17.953125 -10.738281 18.421875 -9.347656 19.359375 -8.328125 C 20.296875 -7.304688 21.476562 -6.796875 22.90625 -6.796875 C 25.164062 -6.796875 27.191406 -8.082031 28.984375 -10.65625 C 30.785156 -13.226562 31.6875 -15.867188 31.6875 -18.578125 Z M 34.6875 -27.3125 L 38.6875 -27.3125 C 38.1875 -25.46875 37.175781 -22.007812 35.65625 -16.9375 C 34.144531 -11.863281 33.390625 -8.867188 33.390625 -7.953125 C 33.390625 -6.890625 33.800781 -6.359375 34.625 -6.359375 C 36.644531 -6.359375 38.546875 -7.726562 40.328125 -10.46875 C 42.117188 -13.207031 43.015625 -16.09375 43.015625 -19.125 C 43.015625 -23.488281 41.457031 -27.113281 38.34375 -30 C 35.226562 -32.894531 31.300781 -34.34375 26.5625 -34.34375 C 21.351562 -34.34375 17.054688 -32.550781 13.671875 -28.96875 C 10.296875 -25.382812 8.609375 -20.835938 8.609375 -15.328125 C 8.609375 -9.679688 10.316406 -5.242188 13.734375 -2.015625 C 17.160156 1.210938 21.570312 2.828125 26.96875 2.828125 C 32.269531 2.828125 36.925781 0.78125 40.9375 -3.3125 L 44.90625 -3.3125 C 40.375 3.21875 34.351562 6.484375 26.84375 6.484375 C 20.4375 6.484375 15.082031 4.578125 10.78125 0.765625 C 6.476562 -3.046875 4.328125 -8.3125 4.328125 -15.03125 C 4.328125 -21.53125 6.4375 -26.984375 10.65625 -31.390625 C 14.882812 -35.796875 20.1875 -38 26.5625 -38 C 32.269531 -38 37.078125 -36.21875 40.984375 -32.65625 C 44.890625 -29.09375 46.84375 -24.738281 46.84375 -19.59375 C 46.84375 -14.90625 45.273438 -10.890625 42.140625 -7.546875 C 39.015625 -4.203125 35.867188 -2.53125 32.703125 -2.53125 C 30.523438 -2.53125 29.285156 -3.75 28.984375 -6.1875 L 28.84375 -6.1875 C 26.457031 -3.75 24.082031 -2.53125 21.71875 -2.53125 C 19.351562 -2.53125 17.328125 -3.421875 15.640625 -5.203125 C 13.953125 -6.992188 13.109375 -9.253906 13.109375 -11.984375 C 13.109375 -16.304688 14.429688 -20.097656 17.078125 -23.359375 C 19.734375 -26.628906 22.953125 -28.265625 26.734375 -28.265625 C 29.921875 -28.265625 32.175781 -26.726562 33.5 -23.65625 Z M 34.6875 -27.3125 "/></g></g></g><g fill="#ffffff" fill-opacity="1"><g transform="translate(914.253736, 609.899581)"><g><path d="M 6.9375 -13.625 L 6.9375 -10.75 C 6.9375 -8.457031 7.441406 -6.722656 8.453125 -5.546875 C 9.460938 -4.367188 11.082031 -3.78125 13.3125 -3.78125 C 15.632812 -3.78125 17.347656 -4.390625 18.453125 -5.609375 C 19.554688 -6.828125 20.109375 -8.65625 20.109375 -11.09375 L 20.109375 -42.34375 L 25.84375 -42.34375 L 25.84375 -11.4375 C 25.84375 -7.382812 24.765625 -4.273438 22.609375 -2.109375 C 20.460938 0.046875 17.46875 1.125 13.625 1.125 C 9.84375 1.125 6.890625 0.160156 4.765625 -1.765625 C 2.640625 -3.703125 1.578125 -6.28125 1.578125 -9.5 L 1.578125 -13.625 Z M 6.9375 -13.625 "/></g></g></g><g fill="#ffffff" fill-opacity="1"><g transform="translate(944.383534, 609.899581)"><g><path d="M 34.21875 -29.609375 C 33.59375 -32.492188 32.265625 -34.679688 30.234375 -36.171875 C 28.210938 -37.660156 25.585938 -38.40625 22.359375 -38.40625 C 18.191406 -38.40625 14.835938 -36.890625 12.296875 -33.859375 C 9.765625 -30.835938 8.5 -26.753906 8.5 -21.609375 C 8.5 -15.648438 9.695312 -11.21875 12.09375 -8.3125 C 14.5 -5.40625 17.976562 -3.953125 22.53125 -3.953125 C 25.519531 -3.953125 28.09375 -4.941406 30.25 -6.921875 C 32.414062 -8.910156 33.875 -11.796875 34.625 -15.578125 L 40.1875 -15.578125 C 39.4375 -10.148438 37.367188 -6.007812 33.984375 -3.15625 C 30.609375 -0.300781 26.503906 1.125 21.671875 1.125 C 15.890625 1.125 11.265625 -0.859375 7.796875 -4.828125 C 4.328125 -8.804688 2.59375 -14.332031 2.59375 -21.40625 C 2.59375 -28.21875 4.398438 -33.597656 8.015625 -37.546875 C 11.640625 -41.492188 16.421875 -43.46875 22.359375 -43.46875 C 27.273438 -43.46875 31.257812 -42.195312 34.3125 -39.65625 C 37.363281 -37.125 39.175781 -33.773438 39.75 -29.609375 Z M 34.21875 -29.609375 "/></g></g></g><g fill="#ffffff" fill-opacity="1"><g transform="translate(987.043409, 609.899581)"><g><path d="M 38.28125 0 L 32.546875 0 L 32.546875 -19.765625 L 10.421875 -19.765625 L 10.421875 0 L 4.78125 0 L 4.78125 -42.34375 L 10.421875 -42.34375 L 10.421875 -24.828125 L 32.546875 -24.828125 L 32.546875 -42.34375 L 38.28125 -42.34375 Z M 38.28125 0 "/></g></g></g><g fill="#ffffff" fill-opacity="1"><g transform="translate(1030.106552, 609.899581)"><g><path d="M 29.734375 -29.96875 C 29.617188 -32.65625 28.613281 -34.757812 26.71875 -36.28125 C 24.820312 -37.8125 22.332031 -38.578125 19.25 -38.578125 C 16.132812 -38.578125 13.738281 -37.9375 12.0625 -36.65625 C 10.394531 -35.382812 9.5625 -33.546875 9.5625 -31.140625 C 9.5625 -29.859375 9.925781 -28.753906 10.65625 -27.828125 C 11.382812 -26.910156 12.691406 -26.226562 14.578125 -25.78125 L 26.671875 -23.015625 C 29.941406 -22.304688 32.363281 -20.957031 33.9375 -18.96875 C 35.507812 -16.976562 36.296875 -14.554688 36.296875 -11.703125 C 36.296875 -7.515625 34.757812 -4.328125 31.6875 -2.140625 C 28.613281 0.0351562 24.617188 1.125 19.703125 1.125 C 15.960938 1.125 13.007812 0.644531 10.84375 -0.3125 C 8.6875 -1.269531 6.769531 -2.796875 5.09375 -4.890625 C 3.425781 -6.984375 2.59375 -9.914062 2.59375 -13.6875 L 7.953125 -13.6875 C 7.953125 -10.53125 9 -8.085938 11.09375 -6.359375 C 13.1875 -4.640625 16.035156 -3.78125 19.640625 -3.78125 C 23.140625 -3.78125 25.863281 -4.394531 27.8125 -5.625 C 29.757812 -6.863281 30.734375 -8.628906 30.734375 -10.921875 C 30.734375 -12.992188 30.148438 -14.539062 28.984375 -15.5625 C 27.828125 -16.59375 25.5625 -17.503906 22.1875 -18.296875 L 13.046875 -20.421875 C 10.015625 -21.117188 7.75 -22.328125 6.25 -24.046875 C 4.75 -25.765625 4 -27.878906 4 -30.390625 C 4 -34.191406 5.28125 -37.320312 7.84375 -39.78125 C 10.414062 -42.238281 13.992188 -43.46875 18.578125 -43.46875 C 23.765625 -43.46875 27.765625 -42.382812 30.578125 -40.21875 C 33.390625 -38.0625 34.90625 -34.644531 35.125 -29.96875 Z M 29.734375 -29.96875 "/></g></g></g><g fill="#ffffff" fill-opacity="1"><g transform="translate(1069.16583, 609.899581)"><g><path d="M 4.78125 -42.34375 L 23.359375 -42.34375 C 27.015625 -42.34375 29.925781 -41.351562 32.09375 -39.375 C 34.257812 -37.40625 35.34375 -34.84375 35.34375 -31.6875 C 35.34375 -29.789062 34.867188 -28.054688 33.921875 -26.484375 C 32.972656 -24.921875 31.554688 -23.707031 29.671875 -22.84375 C 32.304688 -21.84375 34.242188 -20.515625 35.484375 -18.859375 C 36.722656 -17.210938 37.34375 -15.09375 37.34375 -12.5 C 37.34375 -8.851562 36.023438 -5.859375 33.390625 -3.515625 C 30.753906 -1.171875 27.273438 0 22.953125 0 L 4.78125 0 Z M 10.421875 -4.890625 L 22.640625 -4.890625 C 25.640625 -4.890625 27.882812 -5.585938 29.375 -6.984375 C 30.875 -8.378906 31.625 -10.257812 31.625 -12.625 C 31.625 -15.019531 30.789062 -16.804688 29.125 -17.984375 C 27.457031 -19.171875 24.988281 -19.765625 21.71875 -19.765625 L 10.421875 -19.765625 Z M 10.421875 -24.4375 L 20.828125 -24.4375 C 23.859375 -24.4375 26.078125 -24.988281 27.484375 -26.09375 C 28.898438 -27.195312 29.609375 -28.914062 29.609375 -31.25 C 29.609375 -33.269531 28.941406 -34.804688 27.609375 -35.859375 C 26.273438 -36.921875 24.035156 -37.453125 20.890625 -37.453125 L 10.421875 -37.453125 Z M 10.421875 -24.4375 "/></g></g></g><g fill="#ffffff" fill-opacity="1"><g transform="translate(1108.801204, 609.899581)"><g><path d="M 25.0625 -17.890625 C 24.789062 -21.234375 23.90625 -23.597656 22.40625 -24.984375 C 20.914062 -26.378906 18.929688 -27.078125 16.453125 -27.078125 C 13.929688 -27.078125 11.894531 -26.191406 10.34375 -24.421875 C 8.800781 -22.660156 7.984375 -20.484375 7.890625 -17.890625 Z M 30.015625 -9.6875 C 29.441406 -6.488281 27.878906 -3.84375 25.328125 -1.75 C 23.078125 0.0078125 20.117188 0.910156 16.453125 0.953125 C 12.128906 0.910156 8.695312 -0.503906 6.15625 -3.296875 C 3.625 -6.085938 2.359375 -9.847656 2.359375 -14.578125 C 2.359375 -19.992188 3.664062 -24.207031 6.28125 -27.21875 C 8.894531 -30.238281 12.523438 -31.75 17.171875 -31.75 C 21.335938 -31.75 24.59375 -30.191406 26.9375 -27.078125 C 29.28125 -23.960938 30.453125 -19.515625 30.453125 -13.734375 L 7.890625 -13.734375 C 7.890625 -10.515625 8.640625 -8.019531 10.140625 -6.25 C 11.640625 -4.476562 13.882812 -3.59375 16.875 -3.59375 C 18.988281 -3.59375 20.804688 -4.234375 22.328125 -5.515625 C 23.847656 -6.796875 24.679688 -8.1875 24.828125 -9.6875 Z M 30.015625 -9.6875 "/></g></g></g><g fill="#ffffff" fill-opacity="1"><g transform="translate(1141.494639, 609.899581)"><g><path d="M 22.640625 -15.765625 C 22.253906 -15.359375 21.5 -15.03125 20.375 -14.78125 C 19.257812 -14.53125 17.164062 -14.203125 14.09375 -13.796875 C 11.820312 -13.523438 10.148438 -12.96875 9.078125 -12.125 C 8.015625 -11.28125 7.484375 -10.164062 7.484375 -8.78125 C 7.484375 -7.09375 7.9375 -5.773438 8.84375 -4.828125 C 9.75 -3.890625 11.191406 -3.421875 13.171875 -3.421875 C 15.640625 -3.421875 17.832031 -4.125 19.75 -5.53125 C 21.675781 -6.945312 22.640625 -8.664062 22.640625 -10.6875 Z M 3.65625 -21.46875 C 3.769531 -24.9375 4.894531 -27.515625 7.03125 -29.203125 C 9.175781 -30.898438 12.296875 -31.75 16.390625 -31.75 C 19.660156 -31.75 22.398438 -31.007812 24.609375 -29.53125 C 26.816406 -28.050781 27.921875 -25.921875 27.921875 -23.140625 L 27.921875 -5.359375 C 27.921875 -4.148438 28.46875 -3.546875 29.5625 -3.546875 C 30 -3.546875 30.5625 -3.625 31.25 -3.78125 L 31.25 0 C 30.3125 0.382812 29.332031 0.578125 28.3125 0.578125 C 26.550781 0.578125 25.238281 0.195312 24.375 -0.5625 C 23.507812 -1.320312 23.054688 -2.507812 23.015625 -4.125 C 20.054688 -0.78125 16.34375 0.890625 11.875 0.890625 C 8.945312 0.890625 6.597656 0.0664062 4.828125 -1.578125 C 3.066406 -3.234375 2.1875 -5.382812 2.1875 -8.03125 C 2.1875 -10.738281 2.953125 -12.925781 4.484375 -14.59375 C 6.023438 -16.269531 8.265625 -17.28125 11.203125 -17.625 L 20.375 -18.75 C 22.019531 -19 22.84375 -20.21875 22.84375 -22.40625 C 22.84375 -24.019531 22.242188 -25.257812 21.046875 -26.125 C 19.847656 -26.988281 18.023438 -27.421875 15.578125 -27.421875 C 13.410156 -27.421875 11.742188 -26.941406 10.578125 -25.984375 C 9.421875 -25.023438 8.726562 -23.519531 8.5 -21.46875 Z M 3.65625 -21.46875 "/></g></g></g><g fill="#ffffff" fill-opacity="1"><g transform="translate(1173.900002, 609.899581)"><g><path d="M 29.5 0 L 22.84375 0 L 13.21875 -15.578125 L 8.90625 -11.703125 L 8.90625 0 L 3.890625 0 L 3.890625 -42.34375 L 8.90625 -42.34375 L 8.90625 -17.796875 L 22.1875 -30.859375 L 28.78125 -30.859375 L 17 -19.359375 Z M 29.5 0 "/></g></g></g><g fill="#ffffff" fill-opacity="1"><g transform="translate(1203.396094, 609.899581)"><g><path d="M 29.734375 -29.96875 C 29.617188 -32.65625 28.613281 -34.757812 26.71875 -36.28125 C 24.820312 -37.8125 22.332031 -38.578125 19.25 -38.578125 C 16.132812 -38.578125 13.738281 -37.9375 12.0625 -36.65625 C 10.394531 -35.382812 9.5625 -33.546875 9.5625 -31.140625 C 9.5625 -29.859375 9.925781 -28.753906 10.65625 -27.828125 C 11.382812 -26.910156 12.691406 -26.226562 14.578125 -25.78125 L 26.671875 -23.015625 C 29.941406 -22.304688 32.363281 -20.957031 33.9375 -18.96875 C 35.507812 -16.976562 36.296875 -14.554688 36.296875 -11.703125 C 36.296875 -7.515625 34.757812 -4.328125 31.6875 -2.140625 C 28.613281 0.0351562 24.617188 1.125 19.703125 1.125 C 15.960938 1.125 13.007812 0.644531 10.84375 -0.3125 C 8.6875 -1.269531 6.769531 -2.796875 5.09375 -4.890625 C 3.425781 -6.984375 2.59375 -9.914062 2.59375 -13.6875 L 7.953125 -13.6875 C 7.953125 -10.53125 9 -8.085938 11.09375 -6.359375 C 13.1875 -4.640625 16.035156 -3.78125 19.640625 -3.78125 C 23.140625 -3.78125 25.863281 -4.394531 27.8125 -5.625 C 29.757812 -6.863281 30.734375 -8.628906 30.734375 -10.921875 C 30.734375 -12.992188 30.148438 -14.539062 28.984375 -15.5625 C 27.828125 -16.59375 25.5625 -17.503906 22.1875 -18.296875 L 13.046875 -20.421875 C 10.015625 -21.117188 7.75 -22.328125 6.25 -24.046875 C 4.75 -25.765625 4 -27.878906 4 -30.390625 C 4 -34.191406 5.28125 -37.320312 7.84375 -39.78125 C 10.414062 -42.238281 13.992188 -43.46875 18.578125 -43.46875 C 23.765625 -43.46875 27.765625 -42.382812 30.578125 -40.21875 C 33.390625 -38.0625 34.90625 -34.644531 35.125 -29.96875 Z M 29.734375 -29.96875 "/></g></g></g><g fill="#ffffff" fill-opacity="1"><g transform="translate(1242.455373, 609.899581)"><g><path d="M 24.484375 -13.96875 C 24.484375 -18.351562 23.796875 -21.632812 22.421875 -23.8125 C 21.054688 -25.988281 18.96875 -27.078125 16.15625 -27.078125 C 13.445312 -27.078125 11.363281 -26.191406 9.90625 -24.421875 C 8.445312 -22.660156 7.71875 -19.695312 7.71875 -15.53125 C 7.71875 -11.820312 8.457031 -8.90625 9.9375 -6.78125 C 11.414062 -4.65625 13.453125 -3.59375 16.046875 -3.59375 C 18.328125 -3.59375 20.300781 -4.457031 21.96875 -6.1875 C 23.644531 -7.914062 24.484375 -10.507812 24.484375 -13.96875 Z M 29.4375 12.21875 L 24.25 12.21875 L 24.25 -3.25 L 24.140625 -3.25 C 22.160156 -0.488281 19.425781 0.890625 15.9375 0.890625 C 11.613281 0.890625 8.269531 -0.710938 5.90625 -3.921875 C 3.539062 -7.128906 2.359375 -11.265625 2.359375 -16.328125 C 2.359375 -20.828125 3.519531 -24.519531 5.84375 -27.40625 C 8.164062 -30.300781 11.289062 -31.75 15.21875 -31.75 C 19.113281 -31.75 22.1875 -30 24.4375 -26.5 L 24.546875 -26.5 L 24.546875 -30.859375 L 29.4375 -30.859375 Z M 29.4375 12.21875 "/></g></g></g><g fill="#ffffff" fill-opacity="1"><g transform="translate(1275.782489, 609.899581)"><g><path d="M 3.59375 -30.859375 L 8.78125 -30.859375 L 8.78125 -10.375 C 8.78125 -8.101562 9.296875 -6.40625 10.328125 -5.28125 C 11.359375 -4.15625 12.832031 -3.59375 14.75 -3.59375 C 17.414062 -3.59375 19.5 -4.539062 21 -6.4375 C 22.5 -8.332031 23.25 -10.804688 23.25 -13.859375 L 23.25 -30.859375 L 28.4375 -30.859375 L 28.4375 0 L 23.53125 0 L 23.53125 -4.5 L 23.421875 -4.609375 C 21.460938 -0.941406 18.195312 0.890625 13.625 0.890625 C 10.664062 0.890625 8.253906 0.0820312 6.390625 -1.53125 C 4.523438 -3.144531 3.59375 -5.523438 3.59375 -8.671875 Z M 3.59375 -30.859375 "/></g></g></g><g fill="#ffffff" fill-opacity="1"><g transform="translate(1308.101472, 609.899581)"><g><path d="M 22.640625 -15.765625 C 22.253906 -15.359375 21.5 -15.03125 20.375 -14.78125 C 19.257812 -14.53125 17.164062 -14.203125 14.09375 -13.796875 C 11.820312 -13.523438 10.148438 -12.96875 9.078125 -12.125 C 8.015625 -11.28125 7.484375 -10.164062 7.484375 -8.78125 C 7.484375 -7.09375 7.9375 -5.773438 8.84375 -4.828125 C 9.75 -3.890625 11.191406 -3.421875 13.171875 -3.421875 C 15.640625 -3.421875 17.832031 -4.125 19.75 -5.53125 C 21.675781 -6.945312 22.640625 -8.664062 22.640625 -10.6875 Z M 3.65625 -21.46875 C 3.769531 -24.9375 4.894531 -27.515625 7.03125 -29.203125 C 9.175781 -30.898438 12.296875 -31.75 16.390625 -31.75 C 19.660156 -31.75 22.398438 -31.007812 24.609375 -29.53125 C 26.816406 -28.050781 27.921875 -25.921875 27.921875 -23.140625 L 27.921875 -5.359375 C 27.921875 -4.148438 28.46875 -3.546875 29.5625 -3.546875 C 30 -3.546875 30.5625 -3.625 31.25 -3.78125 L 31.25 0 C 30.3125 0.382812 29.332031 0.578125 28.3125 0.578125 C 26.550781 0.578125 25.238281 0.195312 24.375 -0.5625 C 23.507812 -1.320312 23.054688 -2.507812 23.015625 -4.125 C 20.054688 -0.78125 16.34375 0.890625 11.875 0.890625 C 8.945312 0.890625 6.597656 0.0664062 4.828125 -1.578125 C 3.066406 -3.234375 2.1875 -5.382812 2.1875 -8.03125 C 2.1875 -10.738281 2.953125 -12.925781 4.484375 -14.59375 C 6.023438 -16.269531 8.265625 -17.28125 11.203125 -17.625 L 20.375 -18.75 C 22.019531 -19 22.84375 -20.21875 22.84375 -22.40625 C 22.84375 -24.019531 22.242188 -25.257812 21.046875 -26.125 C 19.847656 -26.988281 18.023438 -27.421875 15.578125 -27.421875 C 13.410156 -27.421875 11.742188 -26.941406 10.578125 -25.984375 C 9.421875 -25.023438 8.726562 -23.519531 8.5 -21.46875 Z M 3.65625 -21.46875 "/></g></g></g><g fill="#ffffff" fill-opacity="1"><g transform="translate(1340.506836, 609.899581)"><g><path d="M 7.71875 -15.53125 C 7.71875 -11.707031 8.472656 -8.757812 9.984375 -6.6875 C 11.503906 -4.625 13.523438 -3.59375 16.046875 -3.59375 C 18.441406 -3.59375 20.445312 -4.476562 22.0625 -6.25 C 23.675781 -8.019531 24.484375 -10.59375 24.484375 -13.96875 C 24.484375 -18.3125 23.796875 -21.582031 22.421875 -23.78125 C 21.054688 -25.976562 18.96875 -27.078125 16.15625 -27.078125 C 13.488281 -27.078125 11.414062 -26.203125 9.9375 -24.453125 C 8.457031 -22.710938 7.71875 -19.738281 7.71875 -15.53125 Z M 29.734375 0 L 24.828125 0 L 24.828125 -4.234375 L 24.71875 -4.234375 C 22.757812 -0.816406 19.789062 0.890625 15.8125 0.890625 C 11.53125 0.890625 8.21875 -0.738281 5.875 -4 C 3.53125 -7.269531 2.359375 -11.378906 2.359375 -16.328125 C 2.359375 -20.898438 3.519531 -24.613281 5.84375 -27.46875 C 8.164062 -30.320312 11.289062 -31.75 15.21875 -31.75 C 19.070312 -31.75 22.144531 -30 24.4375 -26.5 L 24.546875 -26.84375 L 24.546875 -42.34375 L 29.734375 -42.34375 Z M 29.734375 0 "/></g></g></g><g fill="#ffffff" fill-opacity="1"><g transform="translate(1118.577895, 668.399578)"><g/></g></g><g fill="#ffffff" fill-opacity="1"><g transform="translate(1118.577895, 718.649576)"><g/></g></g><g fill="#ffffff" fill-opacity="1"><g transform="translate(1118.577895, 768.899573)"><g/></g></g></svg>